<?xml version="1.0" encoding="utf-8" standalone="no"?>
<!DOCTYPE svg PUBLIC "-//W3C//DTD SVG 1.1//EN"
  "http://www.w3.org/Graphics/SVG/1.1/DTD/svg11.dtd">
<svg xmlns:xlink="http://www.w3.org/1999/xlink" width="360pt" height="216pt" viewBox="0 0 360 216" xmlns="http://www.w3.org/2000/svg" version="1.1">
 <metadata>
  <rdf:RDF xmlns:dc="http://purl.org/dc/elements/1.1/" xmlns:cc="http://creativecommons.org/ns#" xmlns:rdf="http://www.w3.org/1999/02/22-rdf-syntax-ns#">
   <cc:Work>
    <dc:type rdf:resource="http://purl.org/dc/dcmitype/StillImage"/>
    <dc:date>2026-03-22T06:12:33.873740</dc:date>
    <dc:format>image/svg+xml</dc:format>
    <dc:creator>
     <cc:Agent>
      <dc:title>Matplotlib v3.10.3, https://matplotlib.org/</dc:title>
     </cc:Agent>
    </dc:creator>
   </cc:Work>
  </rdf:RDF>
 </metadata>
 <defs>
  <style type="text/css">*{stroke-linejoin: round; stroke-linecap: butt}</style>
 </defs>
 <g id="figure_1">
  <g id="patch_1">
   <path d="M 0 216 
L 360 216 
L 360 0 
L 0 0 
z
" style="fill: #ffffff"/>
  </g>
  <g id="axes_1">
   <g id="patch_2">
    <path d="M 263.999808 108 
C 263.999808 91.488509 259.131416 75.337848 250.006243 61.577013 
C 240.88107 47.816179 227.897948 37.046609 212.687936 30.621278 
L 180 108 
z
" style="fill: #1f77b4"/>
   </g>
   <g id="patch_3">
    <path d="M 212.687939 30.621281 
C 201.89054 26.060016 190.257007 23.808843 178.53748 24.012924 
C 166.817953 24.217006 155.269865 26.87185 144.63782 31.806276 
L 180 108 
z
" style="fill: #7f7f7f"/>
   </g>
   <g id="patch_4">
    <path d="M 144.63782 31.806276 
C 136.045795 35.79391 128.189834 41.206297 121.40293 47.814029 
C 114.616026 54.42176 108.995441 62.130131 104.779413 70.612418 
L 180 108 
z
" style="fill: #9467bd"/>
   </g>
   <g id="patch_5">
    <path d="M 104.779413 70.612418 
C 100.689786 78.840391 97.977754 87.683891 96.751554 96.789989 
C 95.525349 105.896086 95.801513 115.141989 97.569026 124.158667 
L 180 108 
z
" style="fill: #dddddd"/>
   </g>
   <g id="patch_6">
    <path d="M 97.569026 124.158667 
C 98.940989 131.157528 101.19875 137.953251 104.287763 144.381652 
C 107.376775 150.810056 111.271954 156.818951 115.879206 162.263172 
L 180 108 
z
" style="fill: #d62728"/>
   </g>
   <g id="patch_7">
    <path d="M 115.879206 162.263172 
C 119.62646 166.691162 123.822341 170.719116 128.399613 174.282485 
C 132.976885 177.845855 137.910975 180.925514 143.122859 183.472142 
L 180 108 
z
" style="fill: #bcbd22"/>
   </g>
   <g id="patch_8">
    <path d="M 143.122859 183.472142 
C 147.737102 185.72675 152.548423 187.553463 157.496307 188.929301 
C 162.444192 190.305139 167.507824 191.224323 172.623595 191.675304 
L 180 108 
z
" style="fill: #e377c2"/>
   </g>
   <g id="patch_9">
    <path d="M 172.623595 191.675304 
C 177.206416 192.079306 181.81469 192.106122 186.401903 191.755497 
C 190.989116 191.404873 195.539782 190.677978 200.007963 189.58216 
L 180 108 
z
" style="fill: #8c564b"/>
   </g>
   <g id="patch_10">
    <path d="M 200.007963 189.58216 
C 204.140724 188.568602 208.19052 187.242472 212.122328 185.615229 
C 216.054136 183.987986 219.8566 182.064341 223.496906 179.860888 
L 180 108 
z
" style="fill: #2ca02c"/>
   </g>
   <g id="patch_11">
    <path d="M 223.496906 179.860888 
C 226.050002 178.315516 228.51893 176.635181 230.89318 174.827033 
C 233.267429 173.018885 235.543641 171.085487 237.712112 169.035071 
L 180 108 
z
" style="fill: url(#hc63a9cae81)"/>
   </g>
   <g id="patch_12">
    <path d="M 237.712112 169.035071 
C 239.380135 167.45786 240.982815 165.812928 242.516086 164.10443 
C 244.049357 162.395932 245.511937 160.625315 246.900162 158.797009 
L 180 108 
z
" style="fill: url(#h92407ba48c)"/>
   </g>
   <g id="patch_13">
    <path d="M 246.900162 158.797009 
C 248.229942 157.045678 249.490429 155.242817 250.678727 153.392567 
C 251.867026 151.542317 252.982226 149.646105 254.021724 147.708341 
L 180 108 
z
" style="fill: url(#h3b4d90436c)"/>
   </g>
   <g id="patch_14">
    <path d="M 254.021724 147.708341 
C 255.043692 145.803257 255.991726 143.85943 256.863721 141.881202 
C 257.735717 139.902974 258.531014 137.891821 259.247844 135.852232 
L 180 108 
z
" style="fill: url(#hce66b2d5f5)"/>
   </g>
   <g id="patch_15">
    <path d="M 259.247844 135.852232 
C 259.837828 134.173552 260.374329 132.476531 260.856527 130.763775 
C 261.338725 129.051019 261.766374 127.323395 262.138838 125.583476 
L 180 108 
z
" style="fill: url(#h9a16a96ee8)"/>
   </g>
   <g id="patch_16">
    <path d="M 262.138838 125.583476 
C 262.376725 124.472209 262.592042 123.356228 262.784648 122.236225 
C 262.977254 121.116221 263.147109 119.992424 263.294108 118.865527 
L 180 108 
z
" style="fill: url(#hbe597e1db4)"/>
   </g>
   <g id="patch_17">
    <path d="M 263.294108 118.865527 
C 263.366606 118.309779 263.433536 117.753319 263.494894 117.196231 
C 263.556252 116.639143 263.612028 116.081455 263.662226 115.523251 
L 180 108 
z
" style="fill: url(#hce7f57426c)"/>
   </g>
   <g id="patch_18">
    <path d="M 263.662226 115.523251 
C 263.697989 115.12556 263.730914 114.727639 263.761 114.329478 
C 263.791085 113.931318 263.818337 113.532928 263.842745 113.134379 
L 180 108 
z
" style="fill: url(#hd5984011a9)"/>
   </g>
   <g id="patch_19">
    <path d="M 263.842745 113.134379 
C 263.866322 112.749376 263.887246 112.364216 263.905515 111.978925 
C 263.923785 111.593634 263.939406 111.208222 263.952369 110.822716 
L 180 108 
z
" style="fill: url(#hac86157e94)"/>
   </g>
   <g id="patch_20">
    <path d="M 263.952369 110.822716 
C 263.962848 110.510982 263.97159 110.199213 263.978599 109.887382 
C 263.985609 109.575551 263.990881 109.263663 263.994416 108.951774 
L 180 108 
z
" style="fill: url(#h603d54136c)"/>
   </g>
   <g id="patch_21">
    <path d="M 263.994416 108.951774 
C 263.995097 108.891536 263.995717 108.831298 263.996268 108.771058 
C 263.996819 108.710819 263.99731 108.65058 263.997735 108.59034 
L 180 108 
z
" style="fill: url(#h2ad00d9a08)"/>
   </g>
   <g id="patch_22">
    <path d="M 263.997735 108.59034 
C 263.998051 108.545774 263.998326 108.501208 263.998566 108.456641 
C 263.998807 108.412075 263.999017 108.367508 263.999187 108.322942 
L 180 108 
z
" style="fill: url(#ha43264ac6d)"/>
   </g>
   <g id="patch_23">
    <path d="M 263.999187 108.322942 
C 263.999352 108.279336 263.999488 108.235731 263.999588 108.192125 
C 263.999688 108.14852 263.999758 108.104914 263.999788 108.061308 
L 180 108 
z
" style="fill: url(#h5eb5b101fd)"/>
   </g>
   <g id="patch_24">
    <path d="M 263.999788 108.061308 
C 263.999793 108.051088 263.999798 108.040847 263.999803 108.030627 
C 263.999808 108.020406 263.999808 108.010206 263.999808 107.999985 
L 180 108 
z
" style="fill: url(#hdc4e0d760e)"/>
   </g>
   <g id="patch_25">
    <path d="M 263.999808 107.999985 
C 263.999808 107.999985 263.999808 107.999985 263.999808 107.999985 
L 180 108 
z
" style="fill: #dddddd"/>
   </g>
   <g id="matplotlib.axis_1"/>
   <g id="matplotlib.axis_2"/>
   <g id="text_1">
    <!-- jit 18.64% -->
    <g transform="translate(257.006868 58.59034) scale(0.06 -0.06)">
     <defs>
      <path id="DejaVuSans-6a" d="M 603 3500 
L 1178 3500 
L 1178 -63 
Q 1178 -731 923 -1031 
Q 669 -1331 103 -1331 
L -116 -1331 
L -116 -844 
L 38 -844 
Q 366 -844 484 -692 
Q 603 -541 603 -63 
L 603 3500 
z
M 603 4863 
L 1178 4863 
L 1178 4134 
L 603 4134 
L 603 4863 
z
" transform="scale(0.015625)"/>
      <path id="DejaVuSans-69" d="M 603 3500 
L 1178 3500 
L 1178 0 
L 603 0 
L 603 3500 
z
M 603 4863 
L 1178 4863 
L 1178 4134 
L 603 4134 
L 603 4863 
z
" transform="scale(0.015625)"/>
      <path id="DejaVuSans-74" d="M 1172 4494 
L 1172 3500 
L 2356 3500 
L 2356 3053 
L 1172 3053 
L 1172 1153 
Q 1172 725 1289 603 
Q 1406 481 1766 481 
L 2356 481 
L 2356 0 
L 1766 0 
Q 1100 0 847 248 
Q 594 497 594 1153 
L 594 3053 
L 172 3053 
L 172 3500 
L 594 3500 
L 594 4494 
L 1172 4494 
z
" transform="scale(0.015625)"/>
      <path id="DejaVuSans-20" transform="scale(0.015625)"/>
      <path id="DejaVuSans-31" d="M 794 531 
L 1825 531 
L 1825 4091 
L 703 3866 
L 703 4441 
L 1819 4666 
L 2450 4666 
L 2450 531 
L 3481 531 
L 3481 0 
L 794 0 
L 794 531 
z
" transform="scale(0.015625)"/>
      <path id="DejaVuSans-38" d="M 2034 2216 
Q 1584 2216 1326 1975 
Q 1069 1734 1069 1313 
Q 1069 891 1326 650 
Q 1584 409 2034 409 
Q 2484 409 2743 651 
Q 3003 894 3003 1313 
Q 3003 1734 2745 1975 
Q 2488 2216 2034 2216 
z
M 1403 2484 
Q 997 2584 770 2862 
Q 544 3141 544 3541 
Q 544 4100 942 4425 
Q 1341 4750 2034 4750 
Q 2731 4750 3128 4425 
Q 3525 4100 3525 3541 
Q 3525 3141 3298 2862 
Q 3072 2584 2669 2484 
Q 3125 2378 3379 2068 
Q 3634 1759 3634 1313 
Q 3634 634 3220 271 
Q 2806 -91 2034 -91 
Q 1263 -91 848 271 
Q 434 634 434 1313 
Q 434 1759 690 2068 
Q 947 2378 1403 2484 
z
M 1172 3481 
Q 1172 3119 1398 2916 
Q 1625 2713 2034 2713 
Q 2441 2713 2670 2916 
Q 2900 3119 2900 3481 
Q 2900 3844 2670 4047 
Q 2441 4250 2034 4250 
Q 1625 4250 1398 4047 
Q 1172 3844 1172 3481 
z
" transform="scale(0.015625)"/>
      <path id="DejaVuSans-2e" d="M 684 794 
L 1344 794 
L 1344 0 
L 684 0 
L 684 794 
z
" transform="scale(0.015625)"/>
      <path id="DejaVuSans-36" d="M 2113 2584 
Q 1688 2584 1439 2293 
Q 1191 2003 1191 1497 
Q 1191 994 1439 701 
Q 1688 409 2113 409 
Q 2538 409 2786 701 
Q 3034 994 3034 1497 
Q 3034 2003 2786 2293 
Q 2538 2584 2113 2584 
z
M 3366 4563 
L 3366 3988 
Q 3128 4100 2886 4159 
Q 2644 4219 2406 4219 
Q 1781 4219 1451 3797 
Q 1122 3375 1075 2522 
Q 1259 2794 1537 2939 
Q 1816 3084 2150 3084 
Q 2853 3084 3261 2657 
Q 3669 2231 3669 1497 
Q 3669 778 3244 343 
Q 2819 -91 2113 -91 
Q 1303 -91 875 529 
Q 447 1150 447 2328 
Q 447 3434 972 4092 
Q 1497 4750 2381 4750 
Q 2619 4750 2861 4703 
Q 3103 4656 3366 4563 
z
" transform="scale(0.015625)"/>
      <path id="DejaVuSans-34" d="M 2419 4116 
L 825 1625 
L 2419 1625 
L 2419 4116 
z
M 2253 4666 
L 3047 4666 
L 3047 1625 
L 3713 1625 
L 3713 1100 
L 3047 1100 
L 3047 0 
L 2419 0 
L 2419 1100 
L 313 1100 
L 313 1709 
L 2253 4666 
z
" transform="scale(0.015625)"/>
      <path id="DejaVuSans-25" d="M 4653 2053 
Q 4381 2053 4226 1822 
Q 4072 1591 4072 1178 
Q 4072 772 4226 539 
Q 4381 306 4653 306 
Q 4919 306 5073 539 
Q 5228 772 5228 1178 
Q 5228 1588 5073 1820 
Q 4919 2053 4653 2053 
z
M 4653 2450 
Q 5147 2450 5437 2106 
Q 5728 1763 5728 1178 
Q 5728 594 5436 251 
Q 5144 -91 4653 -91 
Q 4153 -91 3862 251 
Q 3572 594 3572 1178 
Q 3572 1766 3864 2108 
Q 4156 2450 4653 2450 
z
M 1428 4353 
Q 1159 4353 1004 4120 
Q 850 3888 850 3481 
Q 850 3069 1003 2837 
Q 1156 2606 1428 2606 
Q 1700 2606 1854 2837 
Q 2009 3069 2009 3481 
Q 2009 3884 1853 4118 
Q 1697 4353 1428 4353 
z
M 4250 4750 
L 4750 4750 
L 1831 -91 
L 1331 -91 
L 4250 4750 
z
M 1428 4750 
Q 1922 4750 2215 4408 
Q 2509 4066 2509 3481 
Q 2509 2891 2217 2550 
Q 1925 2209 1428 2209 
Q 931 2209 642 2551 
Q 353 2894 353 3481 
Q 353 4063 643 4406 
Q 934 4750 1428 4750 
z
" transform="scale(0.015625)"/>
     </defs>
     <use xlink:href="#DejaVuSans-6a"/>
     <use xlink:href="#DejaVuSans-69" transform="translate(27.783203 0)"/>
     <use xlink:href="#DejaVuSans-74" transform="translate(55.566406 0)"/>
     <use xlink:href="#DejaVuSans-20" transform="translate(94.775391 0)"/>
     <use xlink:href="#DejaVuSans-31" transform="translate(126.5625 0)"/>
     <use xlink:href="#DejaVuSans-38" transform="translate(190.185547 0)"/>
     <use xlink:href="#DejaVuSans-2e" transform="translate(253.808594 0)"/>
     <use xlink:href="#DejaVuSans-36" transform="translate(285.595703 0)"/>
     <use xlink:href="#DejaVuSans-34" transform="translate(349.21875 0)"/>
     <use xlink:href="#DejaVuSans-25" transform="translate(412.841797 0)"/>
    </g>
   </g>
   <g id="text_2">
    <!-- memory 13.28% -->
    <g transform="translate(128.536842 17.269843) scale(0.06 -0.06)">
     <defs>
      <path id="DejaVuSans-6d" d="M 3328 2828 
Q 3544 3216 3844 3400 
Q 4144 3584 4550 3584 
Q 5097 3584 5394 3201 
Q 5691 2819 5691 2113 
L 5691 0 
L 5113 0 
L 5113 2094 
Q 5113 2597 4934 2840 
Q 4756 3084 4391 3084 
Q 3944 3084 3684 2787 
Q 3425 2491 3425 1978 
L 3425 0 
L 2847 0 
L 2847 2094 
Q 2847 2600 2669 2842 
Q 2491 3084 2119 3084 
Q 1678 3084 1418 2786 
Q 1159 2488 1159 1978 
L 1159 0 
L 581 0 
L 581 3500 
L 1159 3500 
L 1159 2956 
Q 1356 3278 1631 3431 
Q 1906 3584 2284 3584 
Q 2666 3584 2933 3390 
Q 3200 3197 3328 2828 
z
" transform="scale(0.015625)"/>
      <path id="DejaVuSans-65" d="M 3597 1894 
L 3597 1613 
L 953 1613 
Q 991 1019 1311 708 
Q 1631 397 2203 397 
Q 2534 397 2845 478 
Q 3156 559 3463 722 
L 3463 178 
Q 3153 47 2828 -22 
Q 2503 -91 2169 -91 
Q 1331 -91 842 396 
Q 353 884 353 1716 
Q 353 2575 817 3079 
Q 1281 3584 2069 3584 
Q 2775 3584 3186 3129 
Q 3597 2675 3597 1894 
z
M 3022 2063 
Q 3016 2534 2758 2815 
Q 2500 3097 2075 3097 
Q 1594 3097 1305 2825 
Q 1016 2553 972 2059 
L 3022 2063 
z
" transform="scale(0.015625)"/>
      <path id="DejaVuSans-6f" d="M 1959 3097 
Q 1497 3097 1228 2736 
Q 959 2375 959 1747 
Q 959 1119 1226 758 
Q 1494 397 1959 397 
Q 2419 397 2687 759 
Q 2956 1122 2956 1747 
Q 2956 2369 2687 2733 
Q 2419 3097 1959 3097 
z
M 1959 3584 
Q 2709 3584 3137 3096 
Q 3566 2609 3566 1747 
Q 3566 888 3137 398 
Q 2709 -91 1959 -91 
Q 1206 -91 779 398 
Q 353 888 353 1747 
Q 353 2609 779 3096 
Q 1206 3584 1959 3584 
z
" transform="scale(0.015625)"/>
      <path id="DejaVuSans-72" d="M 2631 2963 
Q 2534 3019 2420 3045 
Q 2306 3072 2169 3072 
Q 1681 3072 1420 2755 
Q 1159 2438 1159 1844 
L 1159 0 
L 581 0 
L 581 3500 
L 1159 3500 
L 1159 2956 
Q 1341 3275 1631 3429 
Q 1922 3584 2338 3584 
Q 2397 3584 2469 3576 
Q 2541 3569 2628 3553 
L 2631 2963 
z
" transform="scale(0.015625)"/>
      <path id="DejaVuSans-79" d="M 2059 -325 
Q 1816 -950 1584 -1140 
Q 1353 -1331 966 -1331 
L 506 -1331 
L 506 -850 
L 844 -850 
Q 1081 -850 1212 -737 
Q 1344 -625 1503 -206 
L 1606 56 
L 191 3500 
L 800 3500 
L 1894 763 
L 2988 3500 
L 3597 3500 
L 2059 -325 
z
" transform="scale(0.015625)"/>
      <path id="DejaVuSans-33" d="M 2597 2516 
Q 3050 2419 3304 2112 
Q 3559 1806 3559 1356 
Q 3559 666 3084 287 
Q 2609 -91 1734 -91 
Q 1441 -91 1130 -33 
Q 819 25 488 141 
L 488 750 
Q 750 597 1062 519 
Q 1375 441 1716 441 
Q 2309 441 2620 675 
Q 2931 909 2931 1356 
Q 2931 1769 2642 2001 
Q 2353 2234 1838 2234 
L 1294 2234 
L 1294 2753 
L 1863 2753 
Q 2328 2753 2575 2939 
Q 2822 3125 2822 3475 
Q 2822 3834 2567 4026 
Q 2313 4219 1838 4219 
Q 1578 4219 1281 4162 
Q 984 4106 628 3988 
L 628 4550 
Q 988 4650 1302 4700 
Q 1616 4750 1894 4750 
Q 2613 4750 3031 4423 
Q 3450 4097 3450 3541 
Q 3450 3153 3228 2886 
Q 3006 2619 2597 2516 
z
" transform="scale(0.015625)"/>
      <path id="DejaVuSans-32" d="M 1228 531 
L 3431 531 
L 3431 0 
L 469 0 
L 469 531 
Q 828 903 1448 1529 
Q 2069 2156 2228 2338 
Q 2531 2678 2651 2914 
Q 2772 3150 2772 3378 
Q 2772 3750 2511 3984 
Q 2250 4219 1831 4219 
Q 1534 4219 1204 4116 
Q 875 4013 500 3803 
L 500 4441 
Q 881 4594 1212 4672 
Q 1544 4750 1819 4750 
Q 2544 4750 2975 4387 
Q 3406 4025 3406 3419 
Q 3406 3131 3298 2873 
Q 3191 2616 2906 2266 
Q 2828 2175 2409 1742 
Q 1991 1309 1228 531 
z
" transform="scale(0.015625)"/>
     </defs>
     <use xlink:href="#DejaVuSans-6d"/>
     <use xlink:href="#DejaVuSans-65" transform="translate(97.412109 0)"/>
     <use xlink:href="#DejaVuSans-6d" transform="translate(158.935547 0)"/>
     <use xlink:href="#DejaVuSans-6f" transform="translate(256.347656 0)"/>
     <use xlink:href="#DejaVuSans-72" transform="translate(317.529297 0)"/>
     <use xlink:href="#DejaVuSans-79" transform="translate(358.642578 0)"/>
     <use xlink:href="#DejaVuSans-20" transform="translate(417.822266 0)"/>
     <use xlink:href="#DejaVuSans-31" transform="translate(449.609375 0)"/>
     <use xlink:href="#DejaVuSans-33" transform="translate(513.232422 0)"/>
     <use xlink:href="#DejaVuSans-2e" transform="translate(576.855469 0)"/>
     <use xlink:href="#DejaVuSans-32" transform="translate(608.642578 0)"/>
     <use xlink:href="#DejaVuSans-38" transform="translate(672.265625 0)"/>
     <use xlink:href="#DejaVuSans-25" transform="translate(735.888672 0)"/>
    </g>
   </g>
   <g id="text_3">
    <!-- interpreter 10.74% -->
    <g transform="translate(58.435414 43.451053) scale(0.06 -0.06)">
     <defs>
      <path id="DejaVuSans-6e" d="M 3513 2113 
L 3513 0 
L 2938 0 
L 2938 2094 
Q 2938 2591 2744 2837 
Q 2550 3084 2163 3084 
Q 1697 3084 1428 2787 
Q 1159 2491 1159 1978 
L 1159 0 
L 581 0 
L 581 3500 
L 1159 3500 
L 1159 2956 
Q 1366 3272 1645 3428 
Q 1925 3584 2291 3584 
Q 2894 3584 3203 3211 
Q 3513 2838 3513 2113 
z
" transform="scale(0.015625)"/>
      <path id="DejaVuSans-70" d="M 1159 525 
L 1159 -1331 
L 581 -1331 
L 581 3500 
L 1159 3500 
L 1159 2969 
Q 1341 3281 1617 3432 
Q 1894 3584 2278 3584 
Q 2916 3584 3314 3078 
Q 3713 2572 3713 1747 
Q 3713 922 3314 415 
Q 2916 -91 2278 -91 
Q 1894 -91 1617 61 
Q 1341 213 1159 525 
z
M 3116 1747 
Q 3116 2381 2855 2742 
Q 2594 3103 2138 3103 
Q 1681 3103 1420 2742 
Q 1159 2381 1159 1747 
Q 1159 1113 1420 752 
Q 1681 391 2138 391 
Q 2594 391 2855 752 
Q 3116 1113 3116 1747 
z
" transform="scale(0.015625)"/>
      <path id="DejaVuSans-30" d="M 2034 4250 
Q 1547 4250 1301 3770 
Q 1056 3291 1056 2328 
Q 1056 1369 1301 889 
Q 1547 409 2034 409 
Q 2525 409 2770 889 
Q 3016 1369 3016 2328 
Q 3016 3291 2770 3770 
Q 2525 4250 2034 4250 
z
M 2034 4750 
Q 2819 4750 3233 4129 
Q 3647 3509 3647 2328 
Q 3647 1150 3233 529 
Q 2819 -91 2034 -91 
Q 1250 -91 836 529 
Q 422 1150 422 2328 
Q 422 3509 836 4129 
Q 1250 4750 2034 4750 
z
" transform="scale(0.015625)"/>
      <path id="DejaVuSans-37" d="M 525 4666 
L 3525 4666 
L 3525 4397 
L 1831 0 
L 1172 0 
L 2766 4134 
L 525 4134 
L 525 4666 
z
" transform="scale(0.015625)"/>
     </defs>
     <use xlink:href="#DejaVuSans-69"/>
     <use xlink:href="#DejaVuSans-6e" transform="translate(27.783203 0)"/>
     <use xlink:href="#DejaVuSans-74" transform="translate(91.162109 0)"/>
     <use xlink:href="#DejaVuSans-65" transform="translate(130.371094 0)"/>
     <use xlink:href="#DejaVuSans-72" transform="translate(191.894531 0)"/>
     <use xlink:href="#DejaVuSans-70" transform="translate(233.007812 0)"/>
     <use xlink:href="#DejaVuSans-72" transform="translate(296.484375 0)"/>
     <use xlink:href="#DejaVuSans-65" transform="translate(335.347656 0)"/>
     <use xlink:href="#DejaVuSans-74" transform="translate(396.871094 0)"/>
     <use xlink:href="#DejaVuSans-65" transform="translate(436.080078 0)"/>
     <use xlink:href="#DejaVuSans-72" transform="translate(497.603516 0)"/>
     <use xlink:href="#DejaVuSans-20" transform="translate(538.716797 0)"/>
     <use xlink:href="#DejaVuSans-31" transform="translate(570.503906 0)"/>
     <use xlink:href="#DejaVuSans-30" transform="translate(634.126953 0)"/>
     <use xlink:href="#DejaVuSans-2e" transform="translate(697.75 0)"/>
     <use xlink:href="#DejaVuSans-37" transform="translate(729.537109 0)"/>
     <use xlink:href="#DejaVuSans-34" transform="translate(793.160156 0)"/>
     <use xlink:href="#DejaVuSans-25" transform="translate(856.783203 0)"/>
    </g>
   </g>
   <g id="text_4">
    <!-- unknown 10.42% -->
    <g transform="translate(36.379521 97.324634) scale(0.06 -0.06)">
     <defs>
      <path id="DejaVuSans-75" d="M 544 1381 
L 544 3500 
L 1119 3500 
L 1119 1403 
Q 1119 906 1312 657 
Q 1506 409 1894 409 
Q 2359 409 2629 706 
Q 2900 1003 2900 1516 
L 2900 3500 
L 3475 3500 
L 3475 0 
L 2900 0 
L 2900 538 
Q 2691 219 2414 64 
Q 2138 -91 1772 -91 
Q 1169 -91 856 284 
Q 544 659 544 1381 
z
M 1991 3584 
L 1991 3584 
z
" transform="scale(0.015625)"/>
      <path id="DejaVuSans-6b" d="M 581 4863 
L 1159 4863 
L 1159 1991 
L 2875 3500 
L 3609 3500 
L 1753 1863 
L 3688 0 
L 2938 0 
L 1159 1709 
L 1159 0 
L 581 0 
L 581 4863 
z
" transform="scale(0.015625)"/>
      <path id="DejaVuSans-77" d="M 269 3500 
L 844 3500 
L 1563 769 
L 2278 3500 
L 2956 3500 
L 3675 769 
L 4391 3500 
L 4966 3500 
L 4050 0 
L 3372 0 
L 2619 2869 
L 1863 0 
L 1184 0 
L 269 3500 
z
" transform="scale(0.015625)"/>
     </defs>
     <use xlink:href="#DejaVuSans-75"/>
     <use xlink:href="#DejaVuSans-6e" transform="translate(63.378906 0)"/>
     <use xlink:href="#DejaVuSans-6b" transform="translate(126.757812 0)"/>
     <use xlink:href="#DejaVuSans-6e" transform="translate(184.667969 0)"/>
     <use xlink:href="#DejaVuSans-6f" transform="translate(248.046875 0)"/>
     <use xlink:href="#DejaVuSans-77" transform="translate(309.228516 0)"/>
     <use xlink:href="#DejaVuSans-6e" transform="translate(391.015625 0)"/>
     <use xlink:href="#DejaVuSans-20" transform="translate(454.394531 0)"/>
     <use xlink:href="#DejaVuSans-31" transform="translate(486.181641 0)"/>
     <use xlink:href="#DejaVuSans-30" transform="translate(549.804688 0)"/>
     <use xlink:href="#DejaVuSans-2e" transform="translate(613.427734 0)"/>
     <use xlink:href="#DejaVuSans-34" transform="translate(645.214844 0)"/>
     <use xlink:href="#DejaVuSans-32" transform="translate(708.837891 0)"/>
     <use xlink:href="#DejaVuSans-25" transform="translate(772.460938 0)"/>
    </g>
   </g>
   <g id="text_5">
    <!-- library 8.10% -->
    <g transform="translate(56.445296 149.675461) scale(0.06 -0.06)">
     <defs>
      <path id="DejaVuSans-6c" d="M 603 4863 
L 1178 4863 
L 1178 0 
L 603 0 
L 603 4863 
z
" transform="scale(0.015625)"/>
      <path id="DejaVuSans-62" d="M 3116 1747 
Q 3116 2381 2855 2742 
Q 2594 3103 2138 3103 
Q 1681 3103 1420 2742 
Q 1159 2381 1159 1747 
Q 1159 1113 1420 752 
Q 1681 391 2138 391 
Q 2594 391 2855 752 
Q 3116 1113 3116 1747 
z
M 1159 2969 
Q 1341 3281 1617 3432 
Q 1894 3584 2278 3584 
Q 2916 3584 3314 3078 
Q 3713 2572 3713 1747 
Q 3713 922 3314 415 
Q 2916 -91 2278 -91 
Q 1894 -91 1617 61 
Q 1341 213 1159 525 
L 1159 0 
L 581 0 
L 581 4863 
L 1159 4863 
L 1159 2969 
z
" transform="scale(0.015625)"/>
      <path id="DejaVuSans-61" d="M 2194 1759 
Q 1497 1759 1228 1600 
Q 959 1441 959 1056 
Q 959 750 1161 570 
Q 1363 391 1709 391 
Q 2188 391 2477 730 
Q 2766 1069 2766 1631 
L 2766 1759 
L 2194 1759 
z
M 3341 1997 
L 3341 0 
L 2766 0 
L 2766 531 
Q 2569 213 2275 61 
Q 1981 -91 1556 -91 
Q 1019 -91 701 211 
Q 384 513 384 1019 
Q 384 1609 779 1909 
Q 1175 2209 1959 2209 
L 2766 2209 
L 2766 2266 
Q 2766 2663 2505 2880 
Q 2244 3097 1772 3097 
Q 1472 3097 1187 3025 
Q 903 2953 641 2809 
L 641 3341 
Q 956 3463 1253 3523 
Q 1550 3584 1831 3584 
Q 2591 3584 2966 3190 
Q 3341 2797 3341 1997 
z
" transform="scale(0.015625)"/>
     </defs>
     <use xlink:href="#DejaVuSans-6c"/>
     <use xlink:href="#DejaVuSans-69" transform="translate(27.783203 0)"/>
     <use xlink:href="#DejaVuSans-62" transform="translate(55.566406 0)"/>
     <use xlink:href="#DejaVuSans-72" transform="translate(119.042969 0)"/>
     <use xlink:href="#DejaVuSans-61" transform="translate(160.15625 0)"/>
     <use xlink:href="#DejaVuSans-72" transform="translate(221.435547 0)"/>
     <use xlink:href="#DejaVuSans-79" transform="translate(262.548828 0)"/>
     <use xlink:href="#DejaVuSans-20" transform="translate(321.728516 0)"/>
     <use xlink:href="#DejaVuSans-38" transform="translate(353.515625 0)"/>
     <use xlink:href="#DejaVuSans-2e" transform="translate(417.138672 0)"/>
     <use xlink:href="#DejaVuSans-31" transform="translate(448.925781 0)"/>
     <use xlink:href="#DejaVuSans-30" transform="translate(512.548828 0)"/>
     <use xlink:href="#DejaVuSans-25" transform="translate(576.171875 0)"/>
    </g>
   </g>
   <g id="text_6">
    <!-- dynamic 6.59% -->
    <g transform="translate(76.622388 182.566359) scale(0.06 -0.06)">
     <defs>
      <path id="DejaVuSans-64" d="M 2906 2969 
L 2906 4863 
L 3481 4863 
L 3481 0 
L 2906 0 
L 2906 525 
Q 2725 213 2448 61 
Q 2172 -91 1784 -91 
Q 1150 -91 751 415 
Q 353 922 353 1747 
Q 353 2572 751 3078 
Q 1150 3584 1784 3584 
Q 2172 3584 2448 3432 
Q 2725 3281 2906 2969 
z
M 947 1747 
Q 947 1113 1208 752 
Q 1469 391 1925 391 
Q 2381 391 2643 752 
Q 2906 1113 2906 1747 
Q 2906 2381 2643 2742 
Q 2381 3103 1925 3103 
Q 1469 3103 1208 2742 
Q 947 2381 947 1747 
z
" transform="scale(0.015625)"/>
      <path id="DejaVuSans-63" d="M 3122 3366 
L 3122 2828 
Q 2878 2963 2633 3030 
Q 2388 3097 2138 3097 
Q 1578 3097 1268 2742 
Q 959 2388 959 1747 
Q 959 1106 1268 751 
Q 1578 397 2138 397 
Q 2388 397 2633 464 
Q 2878 531 3122 666 
L 3122 134 
Q 2881 22 2623 -34 
Q 2366 -91 2075 -91 
Q 1284 -91 818 406 
Q 353 903 353 1747 
Q 353 2603 823 3093 
Q 1294 3584 2113 3584 
Q 2378 3584 2631 3529 
Q 2884 3475 3122 3366 
z
" transform="scale(0.015625)"/>
      <path id="DejaVuSans-35" d="M 691 4666 
L 3169 4666 
L 3169 4134 
L 1269 4134 
L 1269 2991 
Q 1406 3038 1543 3061 
Q 1681 3084 1819 3084 
Q 2600 3084 3056 2656 
Q 3513 2228 3513 1497 
Q 3513 744 3044 326 
Q 2575 -91 1722 -91 
Q 1428 -91 1123 -41 
Q 819 9 494 109 
L 494 744 
Q 775 591 1075 516 
Q 1375 441 1709 441 
Q 2250 441 2565 725 
Q 2881 1009 2881 1497 
Q 2881 1984 2565 2268 
Q 2250 2553 1709 2553 
Q 1456 2553 1204 2497 
Q 953 2441 691 2322 
L 691 4666 
z
" transform="scale(0.015625)"/>
      <path id="DejaVuSans-39" d="M 703 97 
L 703 672 
Q 941 559 1184 500 
Q 1428 441 1663 441 
Q 2288 441 2617 861 
Q 2947 1281 2994 2138 
Q 2813 1869 2534 1725 
Q 2256 1581 1919 1581 
Q 1219 1581 811 2004 
Q 403 2428 403 3163 
Q 403 3881 828 4315 
Q 1253 4750 1959 4750 
Q 2769 4750 3195 4129 
Q 3622 3509 3622 2328 
Q 3622 1225 3098 567 
Q 2575 -91 1691 -91 
Q 1453 -91 1209 -44 
Q 966 3 703 97 
z
M 1959 2075 
Q 2384 2075 2632 2365 
Q 2881 2656 2881 3163 
Q 2881 3666 2632 3958 
Q 2384 4250 1959 4250 
Q 1534 4250 1286 3958 
Q 1038 3666 1038 3163 
Q 1038 2656 1286 2365 
Q 1534 2075 1959 2075 
z
" transform="scale(0.015625)"/>
     </defs>
     <use xlink:href="#DejaVuSans-64"/>
     <use xlink:href="#DejaVuSans-79" transform="translate(63.476562 0)"/>
     <use xlink:href="#DejaVuSans-6e" transform="translate(122.65625 0)"/>
     <use xlink:href="#DejaVuSans-61" transform="translate(186.035156 0)"/>
     <use xlink:href="#DejaVuSans-6d" transform="translate(247.314453 0)"/>
     <use xlink:href="#DejaVuSans-69" transform="translate(344.726562 0)"/>
     <use xlink:href="#DejaVuSans-63" transform="translate(372.509766 0)"/>
     <use xlink:href="#DejaVuSans-20" transform="translate(427.490234 0)"/>
     <use xlink:href="#DejaVuSans-36" transform="translate(459.277344 0)"/>
     <use xlink:href="#DejaVuSans-2e" transform="translate(522.900391 0)"/>
     <use xlink:href="#DejaVuSans-35" transform="translate(554.6875 0)"/>
     <use xlink:href="#DejaVuSans-39" transform="translate(618.310547 0)"/>
     <use xlink:href="#DejaVuSans-25" transform="translate(681.933594 0)"/>
    </g>
   </g>
   <g id="text_7">
    <!-- gc 5.83% -->
    <g transform="translate(127.170583 198.677843) scale(0.06 -0.06)">
     <defs>
      <path id="DejaVuSans-67" d="M 2906 1791 
Q 2906 2416 2648 2759 
Q 2391 3103 1925 3103 
Q 1463 3103 1205 2759 
Q 947 2416 947 1791 
Q 947 1169 1205 825 
Q 1463 481 1925 481 
Q 2391 481 2648 825 
Q 2906 1169 2906 1791 
z
M 3481 434 
Q 3481 -459 3084 -895 
Q 2688 -1331 1869 -1331 
Q 1566 -1331 1297 -1286 
Q 1028 -1241 775 -1147 
L 775 -588 
Q 1028 -725 1275 -790 
Q 1522 -856 1778 -856 
Q 2344 -856 2625 -561 
Q 2906 -266 2906 331 
L 2906 616 
Q 2728 306 2450 153 
Q 2172 0 1784 0 
Q 1141 0 747 490 
Q 353 981 353 1791 
Q 353 2603 747 3093 
Q 1141 3584 1784 3584 
Q 2172 3584 2450 3431 
Q 2728 3278 2906 2969 
L 2906 3500 
L 3481 3500 
L 3481 434 
z
" transform="scale(0.015625)"/>
     </defs>
     <use xlink:href="#DejaVuSans-67"/>
     <use xlink:href="#DejaVuSans-63" transform="translate(63.476562 0)"/>
     <use xlink:href="#DejaVuSans-20" transform="translate(118.457031 0)"/>
     <use xlink:href="#DejaVuSans-35" transform="translate(150.244141 0)"/>
     <use xlink:href="#DejaVuSans-2e" transform="translate(213.867188 0)"/>
     <use xlink:href="#DejaVuSans-38" transform="translate(245.654297 0)"/>
     <use xlink:href="#DejaVuSans-33" transform="translate(309.277344 0)"/>
     <use xlink:href="#DejaVuSans-25" transform="translate(372.900391 0)"/>
    </g>
   </g>
   <g id="text_8">
    <!-- lookup 5.23% -->
    <g transform="translate(187.042094 201.786672) scale(0.06 -0.06)">
     <use xlink:href="#DejaVuSans-6c"/>
     <use xlink:href="#DejaVuSans-6f" transform="translate(27.783203 0)"/>
     <use xlink:href="#DejaVuSans-6f" transform="translate(88.964844 0)"/>
     <use xlink:href="#DejaVuSans-6b" transform="translate(150.146484 0)"/>
     <use xlink:href="#DejaVuSans-75" transform="translate(204.931641 0)"/>
     <use xlink:href="#DejaVuSans-70" transform="translate(268.310547 0)"/>
     <use xlink:href="#DejaVuSans-20" transform="translate(331.787109 0)"/>
     <use xlink:href="#DejaVuSans-35" transform="translate(363.574219 0)"/>
     <use xlink:href="#DejaVuSans-2e" transform="translate(427.197266 0)"/>
     <use xlink:href="#DejaVuSans-32" transform="translate(458.984375 0)"/>
     <use xlink:href="#DejaVuSans-33" transform="translate(522.607422 0)"/>
     <use xlink:href="#DejaVuSans-25" transform="translate(586.230469 0)"/>
    </g>
   </g>
   <g id="text_9">
    <!-- libc 4.84% -->
    <g transform="translate(215.334562 195.032376) scale(0.06 -0.06)">
     <use xlink:href="#DejaVuSans-6c"/>
     <use xlink:href="#DejaVuSans-69" transform="translate(27.783203 0)"/>
     <use xlink:href="#DejaVuSans-62" transform="translate(55.566406 0)"/>
     <use xlink:href="#DejaVuSans-63" transform="translate(119.042969 0)"/>
     <use xlink:href="#DejaVuSans-20" transform="translate(174.023438 0)"/>
     <use xlink:href="#DejaVuSans-34" transform="translate(205.810547 0)"/>
     <use xlink:href="#DejaVuSans-2e" transform="translate(269.433594 0)"/>
     <use xlink:href="#DejaVuSans-38" transform="translate(301.220703 0)"/>
     <use xlink:href="#DejaVuSans-34" transform="translate(364.84375 0)"/>
     <use xlink:href="#DejaVuSans-25" transform="translate(428.466797 0)"/>
    </g>
   </g>
   <g id="text_10">
    <!-- dict 3.39% -->
    <g transform="translate(235.982534 183.165331) scale(0.06 -0.06)">
     <use xlink:href="#DejaVuSans-64"/>
     <use xlink:href="#DejaVuSans-69" transform="translate(63.476562 0)"/>
     <use xlink:href="#DejaVuSans-63" transform="translate(91.259766 0)"/>
     <use xlink:href="#DejaVuSans-74" transform="translate(146.240234 0)"/>
     <use xlink:href="#DejaVuSans-20" transform="translate(185.449219 0)"/>
     <use xlink:href="#DejaVuSans-33" transform="translate(217.236328 0)"/>
     <use xlink:href="#DejaVuSans-2e" transform="translate(280.859375 0)"/>
     <use xlink:href="#DejaVuSans-33" transform="translate(312.646484 0)"/>
     <use xlink:href="#DejaVuSans-39" transform="translate(376.269531 0)"/>
     <use xlink:href="#DejaVuSans-25" transform="translate(439.892578 0)"/>
    </g>
   </g>
  </g>
 </g>
 <defs>
  <pattern id="hc63a9cae81" patternUnits="userSpaceOnUse" x="0" y="0" width="72" height="72">
   <rect x="0" y="0" width="73" height="73" fill="#2ca02c"/>
   <path d="M -36 36 
L 36 -36 
M -30 42 
L 42 -30 
M -24 48 
L 48 -24 
M -18 54 
L 54 -18 
M -12 60 
L 60 -12 
M -6 66 
L 66 -6 
M 0 72 
L 72 0 
M 6 78 
L 78 6 
M 12 84 
L 84 12 
M 18 90 
L 90 18 
M 24 96 
L 96 24 
M 30 102 
L 102 30 
M 36 108 
L 108 36 
" style="fill: #000000; stroke: #000000; stroke-width: 1.0; stroke-linecap: butt; stroke-linejoin: miter"/>
  </pattern>
  <pattern id="h92407ba48c" patternUnits="userSpaceOnUse" x="0" y="0" width="72" height="72">
   <rect x="0" y="0" width="73" height="73" fill="#1f77b4"/>
   <path d="M -36 36 
L 36 -36 
M -30 42 
L 42 -30 
M -24 48 
L 48 -24 
M -18 54 
L 54 -18 
M -12 60 
L 60 -12 
M -6 66 
L 66 -6 
M 0 72 
L 72 0 
M 6 78 
L 78 6 
M 12 84 
L 84 12 
M 18 90 
L 90 18 
M 24 96 
L 96 24 
M 30 102 
L 102 30 
M 36 108 
L 108 36 
" style="fill: #000000; stroke: #000000; stroke-width: 1.0; stroke-linecap: butt; stroke-linejoin: miter"/>
  </pattern>
  <pattern id="h3b4d90436c" patternUnits="userSpaceOnUse" x="0" y="0" width="72" height="72">
   <rect x="0" y="0" width="73" height="73" fill="#8c564b"/>
   <path d="M -36 36 
L 36 -36 
M -30 42 
L 42 -30 
M -24 48 
L 48 -24 
M -18 54 
L 54 -18 
M -12 60 
L 60 -12 
M -6 66 
L 66 -6 
M 0 72 
L 72 0 
M 6 78 
L 78 6 
M 12 84 
L 84 12 
M 18 90 
L 90 18 
M 24 96 
L 96 24 
M 30 102 
L 102 30 
M 36 108 
L 108 36 
" style="fill: #000000; stroke: #000000; stroke-width: 1.0; stroke-linecap: butt; stroke-linejoin: miter"/>
  </pattern>
  <pattern id="hce66b2d5f5" patternUnits="userSpaceOnUse" x="0" y="0" width="72" height="72">
   <rect x="0" y="0" width="73" height="73" fill="#e377c2"/>
   <path d="M -36 36 
L 36 -36 
M -30 42 
L 42 -30 
M -24 48 
L 48 -24 
M -18 54 
L 54 -18 
M -12 60 
L 60 -12 
M -6 66 
L 66 -6 
M 0 72 
L 72 0 
M 6 78 
L 78 6 
M 12 84 
L 84 12 
M 18 90 
L 90 18 
M 24 96 
L 96 24 
M 30 102 
L 102 30 
M 36 108 
L 108 36 
" style="fill: #000000; stroke: #000000; stroke-width: 1.0; stroke-linecap: butt; stroke-linejoin: miter"/>
  </pattern>
  <pattern id="h9a16a96ee8" patternUnits="userSpaceOnUse" x="0" y="0" width="72" height="72">
   <rect x="0" y="0" width="73" height="73" fill="#d62728"/>
   <path d="M -36 36 
L 36 -36 
M -30 42 
L 42 -30 
M -24 48 
L 48 -24 
M -18 54 
L 54 -18 
M -12 60 
L 60 -12 
M -6 66 
L 66 -6 
M 0 72 
L 72 0 
M 6 78 
L 78 6 
M 12 84 
L 84 12 
M 18 90 
L 90 18 
M 24 96 
L 96 24 
M 30 102 
L 102 30 
M 36 108 
L 108 36 
" style="fill: #000000; stroke: #000000; stroke-width: 1.0; stroke-linecap: butt; stroke-linejoin: miter"/>
  </pattern>
  <pattern id="hbe597e1db4" patternUnits="userSpaceOnUse" x="0" y="0" width="72" height="72">
   <rect x="0" y="0" width="73" height="73" fill="#ff7f0e"/>
   <path d="M -36 36 
L 36 -36 
M -30 42 
L 42 -30 
M -24 48 
L 48 -24 
M -18 54 
L 54 -18 
M -12 60 
L 60 -12 
M -6 66 
L 66 -6 
M 0 72 
L 72 0 
M 6 78 
L 78 6 
M 12 84 
L 84 12 
M 18 90 
L 90 18 
M 24 96 
L 96 24 
M 30 102 
L 102 30 
M 36 108 
L 108 36 
" style="fill: #000000; stroke: #000000; stroke-width: 1.0; stroke-linecap: butt; stroke-linejoin: miter"/>
  </pattern>
  <pattern id="hce7f57426c" patternUnits="userSpaceOnUse" x="0" y="0" width="72" height="72">
   <rect x="0" y="0" width="73" height="73" fill="#17becf"/>
   <path d="M -36 36 
L 36 -36 
M -30 42 
L 42 -30 
M -24 48 
L 48 -24 
M -18 54 
L 54 -18 
M -12 60 
L 60 -12 
M -6 66 
L 66 -6 
M 0 72 
L 72 0 
M 6 78 
L 78 6 
M 12 84 
L 84 12 
M 18 90 
L 90 18 
M 24 96 
L 96 24 
M 30 102 
L 102 30 
M 36 108 
L 108 36 
" style="fill: #000000; stroke: #000000; stroke-width: 1.0; stroke-linecap: butt; stroke-linejoin: miter"/>
  </pattern>
  <pattern id="hd5984011a9" patternUnits="userSpaceOnUse" x="0" y="0" width="72" height="72">
   <rect x="0" y="0" width="73" height="73" fill="#d62728"/>
   <path d="M -36 36 
L 36 108 
M -30 30 
L 42 102 
M -24 24 
L 48 96 
M -18 18 
L 54 90 
M -12 12 
L 60 84 
M -6 6 
L 66 78 
M 0 0 
L 72 72 
M 6 -6 
L 78 66 
M 12 -12 
L 84 60 
M 18 -18 
L 90 54 
M 24 -24 
L 96 48 
M 30 -30 
L 102 42 
M 36 -36 
L 108 36 
" style="fill: #000000; stroke: #000000; stroke-width: 1.0; stroke-linecap: butt; stroke-linejoin: miter"/>
  </pattern>
  <pattern id="hac86157e94" patternUnits="userSpaceOnUse" x="0" y="0" width="72" height="72">
   <rect x="0" y="0" width="73" height="73" fill="#7f7f7f"/>
   <path d="M -36 36 
L 36 -36 
M -30 42 
L 42 -30 
M -24 48 
L 48 -24 
M -18 54 
L 54 -18 
M -12 60 
L 60 -12 
M -6 66 
L 66 -6 
M 0 72 
L 72 0 
M 6 78 
L 78 6 
M 12 84 
L 84 12 
M 18 90 
L 90 18 
M 24 96 
L 96 24 
M 30 102 
L 102 30 
M 36 108 
L 108 36 
" style="fill: #000000; stroke: #000000; stroke-width: 1.0; stroke-linecap: butt; stroke-linejoin: miter"/>
  </pattern>
  <pattern id="h603d54136c" patternUnits="userSpaceOnUse" x="0" y="0" width="72" height="72">
   <rect x="0" y="0" width="73" height="73" fill="#9467bd"/>
   <path d="M -36 36 
L 36 -36 
M -30 42 
L 42 -30 
M -24 48 
L 48 -24 
M -18 54 
L 54 -18 
M -12 60 
L 60 -12 
M -6 66 
L 66 -6 
M 0 72 
L 72 0 
M 6 78 
L 78 6 
M 12 84 
L 84 12 
M 18 90 
L 90 18 
M 24 96 
L 96 24 
M 30 102 
L 102 30 
M 36 108 
L 108 36 
" style="fill: #000000; stroke: #000000; stroke-width: 1.0; stroke-linecap: butt; stroke-linejoin: miter"/>
  </pattern>
  <pattern id="h2ad00d9a08" patternUnits="userSpaceOnUse" x="0" y="0" width="72" height="72">
   <rect x="0" y="0" width="73" height="73" fill="#bcbd22"/>
   <path d="M -36 36 
L 36 -36 
M -30 42 
L 42 -30 
M -24 48 
L 48 -24 
M -18 54 
L 54 -18 
M -12 60 
L 60 -12 
M -6 66 
L 66 -6 
M 0 72 
L 72 0 
M 6 78 
L 78 6 
M 12 84 
L 84 12 
M 18 90 
L 90 18 
M 24 96 
L 96 24 
M 30 102 
L 102 30 
M 36 108 
L 108 36 
" style="fill: #000000; stroke: #000000; stroke-width: 1.0; stroke-linecap: butt; stroke-linejoin: miter"/>
  </pattern>
  <pattern id="ha43264ac6d" patternUnits="userSpaceOnUse" x="0" y="0" width="72" height="72">
   <rect x="0" y="0" width="73" height="73" fill="#2ca02c"/>
   <path d="M -36 36 
L 36 108 
M -30 30 
L 42 102 
M -24 24 
L 48 96 
M -18 18 
L 54 90 
M -12 12 
L 60 84 
M -6 6 
L 66 78 
M 0 0 
L 72 72 
M 6 -6 
L 78 66 
M 12 -12 
L 84 60 
M 18 -18 
L 90 54 
M 24 -24 
L 96 48 
M 30 -30 
L 102 42 
M 36 -36 
L 108 36 
" style="fill: #000000; stroke: #000000; stroke-width: 1.0; stroke-linecap: butt; stroke-linejoin: miter"/>
  </pattern>
  <pattern id="h5eb5b101fd" patternUnits="userSpaceOnUse" x="0" y="0" width="72" height="72">
   <rect x="0" y="0" width="73" height="73" fill="#1f77b4"/>
   <path d="M -36 36 
L 36 108 
M -30 30 
L 42 102 
M -24 24 
L 48 96 
M -18 18 
L 54 90 
M -12 12 
L 60 84 
M -6 6 
L 66 78 
M 0 0 
L 72 72 
M 6 -6 
L 78 66 
M 12 -12 
L 84 60 
M 18 -18 
L 90 54 
M 24 -24 
L 96 48 
M 30 -30 
L 102 42 
M 36 -36 
L 108 36 
" style="fill: #000000; stroke: #000000; stroke-width: 1.0; stroke-linecap: butt; stroke-linejoin: miter"/>
  </pattern>
  <pattern id="hdc4e0d760e" patternUnits="userSpaceOnUse" x="0" y="0" width="72" height="72">
   <rect x="0" y="0" width="73" height="73" fill="#ff7f0e"/>
   <path d="M -36 36 
L 36 108 
M -30 30 
L 42 102 
M -24 24 
L 48 96 
M -18 18 
L 54 90 
M -12 12 
L 60 84 
M -6 6 
L 66 78 
M 0 0 
L 72 72 
M 6 -6 
L 78 66 
M 12 -12 
L 84 60 
M 18 -18 
L 90 54 
M 24 -24 
L 96 48 
M 30 -30 
L 102 42 
M 36 -36 
L 108 36 
" style="fill: #000000; stroke: #000000; stroke-width: 1.0; stroke-linecap: butt; stroke-linejoin: miter"/>
  </pattern>
 </defs>
</svg>
