<?xml version="1.0" encoding="UTF-8"?>
<!DOCTYPE svg  PUBLIC '-//W3C//DTD SVG 1.1//EN'  'http://www.w3.org/Graphics/SVG/1.1/DTD/svg11.dtd'>
<svg width="576pt" height="317pt" version="1.1" viewBox="0 0 576 317" xmlns="http://www.w3.org/2000/svg" xmlns:xlink="http://www.w3.org/1999/xlink">
<defs>
<style type="text/css">*{stroke-linejoin: round; stroke-linecap: butt}</style>
</defs>
<path d="m0 317h576v-317h-576z" fill="#fff"/>
<path d="m94.6 297h478v-262h-478z" fill="#fff"/>
<path d="m334 258v26.2-26.2z" clip-path="url(#a)" fill="#f00" fill-opacity=".3"/>
<path d="m349 232v26.2-26.2z" clip-path="url(#a)" fill="#1f77b4" fill-opacity=".3"/>
<path d="m352 205v26.2-26.2z" clip-path="url(#a)" fill="#1f77b4" fill-opacity=".3"/>
<path d="m355 179v26.2-26.2z" clip-path="url(#a)" fill="#1f77b4" fill-opacity=".3"/>
<path d="m355 153v26.2-26.2z" clip-path="url(#a)" fill="#1f77b4" fill-opacity=".3"/>
<path d="m356 127v26.2-26.2z" clip-path="url(#a)" fill="#1f77b4" fill-opacity=".3"/>
<path d="m360 100v26.2-26.2z" clip-path="url(#a)" fill="#1f77b4" fill-opacity=".3"/>
<path d="m464 74.1v26.2-26.2z" clip-path="url(#a)" fill="#f00" fill-opacity=".3"/>
<path d="m334 50.4v21.2l1.32 0.318 1.32 0.303 1.32 0.287 1.32 0.268 1.32 0.248 1.32 0.226 1.32 0.203 1.32 0.179 1.32 0.153 1.32 0.126 1.32 0.0987 1.32 0.0704 1.32 0.0416 1.32 0.0124 1.32-0.0169 1.32-0.0461 1.32-0.0751 1.32-0.104 1.32-0.131 1.32-0.158 1.32-0.184 1.32-0.209 1.32-0.233 1.32-0.255 1.32-0.275 1.32-0.294 1.32-0.311 1.32-0.326 1.32-0.34 1.32-0.351 1.32-0.36 7.92-2.25 1.32-0.372 1.32-0.367 1.32-0.36 1.32-0.353 1.32-0.343 1.32-0.333 1.32-0.322 1.32-0.31 1.32-0.297 1.32-0.284 1.32-0.27 1.32-0.256 1.32-0.241 1.32-0.227 1.32-0.212 1.32-0.197 1.32-0.182 1.32-0.168 1.32-0.154 1.32-0.14 1.32-0.126 1.32-0.113 1.32-0.1 1.32-0.0878 1.32-0.0759 1.32-0.0645 1.32-0.0537 1.32-0.0434 1.32-0.0337 1.32-0.0245 1.32-0.0158 1.32-0.00777 1.32-2.79e-4 1.32 0.00665 1.32 0.013 1.32 0.0188 1.32 0.024 1.32 0.0287 1.32 0.0329 1.32 0.0364 1.32 0.0395 1.32 0.042 1.32 0.0439 1.32 0.0454 10.6 0.356 3.96 0.102 3.96 0.07 2.64 0.0259 2.64 0.00796v-3.91l-2.64 0.00796-3.96 0.0453-3.96 0.0815-15.8 0.517-1.32 0.042-1.32 0.0395-1.32 0.0364-1.32 0.0329-1.32 0.0287-1.32 0.024-1.32 0.0188-1.32 0.013-1.32 0.00665-1.32-2.79e-4 -1.32-0.00777-1.32-0.0158-1.32-0.0245-1.32-0.0337-1.32-0.0434-1.32-0.0537-1.32-0.0645-1.32-0.0759-1.32-0.0878-1.32-0.1-1.32-0.113-1.32-0.126-1.32-0.14-1.32-0.154-1.32-0.168-1.32-0.182-1.32-0.197-1.32-0.212-1.32-0.227-1.32-0.241-1.32-0.256-1.32-0.27-1.32-0.284-1.32-0.297-1.32-0.31-1.32-0.322-1.32-0.333-1.32-0.343-1.32-0.353-1.32-0.36-1.32-0.367-1.32-0.372-1.32-0.376-5.28-1.5-1.32-0.367-1.32-0.36-1.32-0.351-1.32-0.34-1.32-0.326-1.32-0.311-1.32-0.294-1.32-0.275-1.32-0.255-1.32-0.233-1.32-0.209-1.32-0.184-1.32-0.158-1.32-0.131-1.32-0.104-1.32-0.0751-1.32-0.0461-1.32-0.0169-1.32 0.0124-1.32 0.0416-1.32 0.0704-1.32 0.0987-1.32 0.126-1.32 0.153-1.32 0.179-1.32 0.203-1.32 0.226-1.32 0.248-1.32 0.268-1.32 0.287-1.32 0.303-1.32 0.318z" clip-path="url(#a)" fill="#1f77b4" fill-opacity=".3"/>
<path d="m142 297v-262" clip-path="url(#a)" fill="none" stroke="#b0b0b0" stroke-linecap="square" stroke-width=".8"/>
<defs>
<path id="s" d="m0 0v3.5" stroke="#000" stroke-width=".8"/>
</defs>
<use x="142.478161" y="297.121635" stroke="#000000" stroke-width=".8" xlink:href="#s"/>
<defs>
<path id="t" d="m0 0v-3.5" stroke="#000" stroke-width=".8"/>
</defs>
<use x="142.478161" y="34.79649" stroke="#000000" stroke-width=".8" xlink:href="#t"/>
<g transform="translate(127 312) scale(.1 -.1)">
<defs>
<path id="b" transform="scale(.0156)" d="m2034 4250q-487 0-733-480-245-479-245-1442 0-959 245-1439 246-480 733-480 491 0 736 480 246 480 246 1439 0 963-246 1442-245 480-736 480zm0 500q785 0 1199-621 414-620 414-1801 0-1178-414-1799-414-620-1199-620-784 0-1198 620-414 621-414 1799 0 1181 414 1801 414 621 1198 621z"/>
<path id="e" transform="scale(.0156)" d="m684 794h660v-794h-660v794z"/>
<path id="ab" transform="scale(.0156)" d="m2034 2216q-450 0-708-241-257-241-257-662 0-422 257-663 258-241 708-241t709 242q260 243 260 662 0 421-258 662-257 241-711 241zm-631 268q-406 100-633 378-226 279-226 679 0 559 398 884 399 325 1092 325 697 0 1094-325t397-884q0-400-227-679-226-278-629-378 456-106 710-416 255-309 255-755 0-679-414-1042-414-362-1186-362-771 0-1186 362-414 363-414 1042 0 446 256 755 257 310 713 416zm-231 997q0-362 226-565 227-203 636-203 407 0 636 203 230 203 230 565 0 363-230 566-229 203-636 203-409 0-636-203-226-203-226-566z"/>
<path id="h" transform="scale(.0156)" d="m4488 3438-1429-1435 1429-1428-372-378-1435 1434-1434-1434-369 378 1425 1428-1425 1435 369 378 1434-1435 1435 1435 372-378z"/>
</defs>
<use xlink:href="#b"/>
<use transform="translate(63.6)" xlink:href="#e"/>
<use transform="translate(95.4)" xlink:href="#ab"/>
<use transform="translate(159)" xlink:href="#b"/>
<use transform="translate(223)" xlink:href="#h"/>
</g>
<g transform="translate(127 25.7) scale(.1 -.1)">
<use xlink:href="#b"/>
<use transform="translate(63.6)" xlink:href="#e"/>
<use transform="translate(95.4)" xlink:href="#ab"/>
<use transform="translate(159)" xlink:href="#b"/>
<use transform="translate(223)" xlink:href="#h"/>
</g>
<path d="m238 297v-262" clip-path="url(#a)" fill="none" stroke="#b0b0b0" stroke-linecap="square" stroke-width=".8"/>
<use x="238.149627" y="297.121635" stroke="#000000" stroke-width=".8" xlink:href="#s"/>
<use x="238.149627" y="34.79649" stroke="#000000" stroke-width=".8" xlink:href="#t"/>
<g transform="translate(223 312) scale(.1 -.1)">
<defs>
<path id="aa" transform="scale(.0156)" d="m703 97v575q238-113 481-172 244-59 479-59 625 0 954 420 330 420 377 1277-181-269-460-413-278-144-615-144-700 0-1108 423-408 424-408 1159 0 718 425 1152 425 435 1131 435 810 0 1236-621 427-620 427-1801 0-1103-524-1761-523-658-1407-658-238 0-482 47-243 47-506 141zm1256 1978q425 0 673 290 249 291 249 798 0 503-249 795-248 292-673 292t-673-292-248-795q0-507 248-798 248-290 673-290z"/>
</defs>
<use xlink:href="#b"/>
<use transform="translate(63.6)" xlink:href="#e"/>
<use transform="translate(95.4)" xlink:href="#aa"/>
<use transform="translate(159)" xlink:href="#b"/>
<use transform="translate(223)" xlink:href="#h"/>
</g>
<g transform="translate(223 25.7) scale(.1 -.1)">
<use xlink:href="#b"/>
<use transform="translate(63.6)" xlink:href="#e"/>
<use transform="translate(95.4)" xlink:href="#aa"/>
<use transform="translate(159)" xlink:href="#b"/>
<use transform="translate(223)" xlink:href="#h"/>
</g>
<path d="m334 297v-262" clip-path="url(#a)" fill="none" stroke="#b0b0b0" stroke-linecap="square" stroke-width=".8"/>
<use x="333.821094" y="297.121635" stroke="#000000" stroke-width=".8" xlink:href="#s"/>
<use x="333.821094" y="34.79649" stroke="#000000" stroke-width=".8" xlink:href="#t"/>
<g transform="translate(318 312) scale(.1 -.1)">
<defs>
<path id="d" transform="scale(.0156)" d="m794 531h1031v3560l-1122-225v575l1116 225h631v-4135h1031v-531h-2687v531z"/>
</defs>
<use xlink:href="#d"/>
<use transform="translate(63.6)" xlink:href="#e"/>
<use transform="translate(95.4)" xlink:href="#b"/>
<use transform="translate(159)" xlink:href="#b"/>
<use transform="translate(223)" xlink:href="#h"/>
</g>
<g transform="translate(318 25.7) scale(.1 -.1)">
<use xlink:href="#d"/>
<use transform="translate(63.6)" xlink:href="#e"/>
<use transform="translate(95.4)" xlink:href="#b"/>
<use transform="translate(159)" xlink:href="#b"/>
<use transform="translate(223)" xlink:href="#h"/>
</g>
<path d="m429 297v-262" clip-path="url(#a)" fill="none" stroke="#b0b0b0" stroke-linecap="square" stroke-width=".8"/>
<use x="429.49256" y="297.121635" stroke="#000000" stroke-width=".8" xlink:href="#s"/>
<use x="429.49256" y="34.79649" stroke="#000000" stroke-width=".8" xlink:href="#t"/>
<g transform="translate(414 312) scale(.1 -.1)">
<use xlink:href="#d"/>
<use transform="translate(63.6)" xlink:href="#e"/>
<use transform="translate(95.4)" xlink:href="#d"/>
<use transform="translate(159)" xlink:href="#b"/>
<use transform="translate(223)" xlink:href="#h"/>
</g>
<g transform="translate(414 25.7) scale(.1 -.1)">
<use xlink:href="#d"/>
<use transform="translate(63.6)" xlink:href="#e"/>
<use transform="translate(95.4)" xlink:href="#d"/>
<use transform="translate(159)" xlink:href="#b"/>
<use transform="translate(223)" xlink:href="#h"/>
</g>
<path d="m525 297v-262" clip-path="url(#a)" fill="none" stroke="#b0b0b0" stroke-linecap="square" stroke-width=".8"/>
<use x="525.164027" y="297.121635" stroke="#000000" stroke-width=".8" xlink:href="#s"/>
<use x="525.164027" y="34.79649" stroke="#000000" stroke-width=".8" xlink:href="#t"/>
<g transform="translate(510 312) scale(.1 -.1)">
<defs>
<path id="o" transform="scale(.0156)" d="m1228 531h2203v-531h-2962v531q359 372 979 998 621 627 780 809 303 340 423 576 121 236 121 464 0 372-261 606-261 235-680 235-297 0-627-103-329-103-704-313v638q381 153 712 231 332 78 607 78 725 0 1156-363 431-362 431-968 0-288-108-546-107-257-392-607-78-91-497-524-418-433-1181-1211z"/>
</defs>
<use xlink:href="#d"/>
<use transform="translate(63.6)" xlink:href="#e"/>
<use transform="translate(95.4)" xlink:href="#o"/>
<use transform="translate(159)" xlink:href="#b"/>
<use transform="translate(223)" xlink:href="#h"/>
</g>
<g transform="translate(510 25.7) scale(.1 -.1)">
<use xlink:href="#d"/>
<use transform="translate(63.6)" xlink:href="#e"/>
<use transform="translate(95.4)" xlink:href="#o"/>
<use transform="translate(159)" xlink:href="#b"/>
<use transform="translate(223)" xlink:href="#h"/>
</g>
<path d="m94.6 271h478" clip-path="url(#a)" fill="none" stroke="#b0b0b0" stroke-linecap="square" stroke-width=".8"/>
<defs>
<path id="i" d="m0 0h-3.5" stroke="#000" stroke-width=".8"/>
</defs>
<use x="94.642428" y="270.889121" stroke="#000000" stroke-width=".8" xlink:href="#i"/>
<g transform="translate(35.3 275) scale(.1 -.1)">
<defs>
<path id="f" transform="scale(.0156)" d="m3122 3366v-538q-244 135-489 202t-495 67q-560 0-870-355-309-354-309-995t309-996q310-354 870-354 250 0 495 67t489 202v-532q-241-112-499-168-257-57-548-57-791 0-1257 497-465 497-465 1341 0 856 470 1346 471 491 1290 491 265 0 518-55 253-54 491-163z"/>
<path id="g" transform="scale(.0156)" d="m1959 3097q-462 0-731-361t-269-989 267-989q268-361 733-361 460 0 728 362 269 363 269 988 0 622-269 986-268 364-728 364zm0 487q750 0 1178-488 429-487 429-1349 0-859-429-1349-428-489-1178-489-753 0-1180 489-426 490-426 1349 0 862 426 1349 427 488 1180 488z"/>
<path id="k" transform="scale(.0156)" d="m2631 2963q-97 56-211 82-114 27-251 27-488 0-749-317t-261-911v-1844h-578v3500h578v-544q182 319 472 473 291 155 707 155 59 0 131-8 72-7 159-23l3-590z"/>
<path id="ad" transform="scale(.0156)" d="m544 1381v2119h575v-2097q0-497 193-746 194-248 582-248 465 0 735 297 271 297 271 810v1984h575v-3500h-575v538q-209-319-486-474-276-155-642-155-603 0-916 375-312 375-312 1097zm1447 2203z"/>
<path id="q" transform="scale(.0156)" d="m1172 4494v-994h1184v-447h-1184v-1900q0-428 117-550t477-122h590v-481h-590q-666 0-919 248-253 249-253 905v1900h-422v447h422v994h578z"/>
<path id="x" transform="scale(.0156)" d="m603 3500h575v-3500h-575v3500zm0 1363h575v-729h-575v729z"/>
<path id="w" transform="scale(.0156)" d="m3513 2113v-2113h-575v2094q0 497-194 743-194 247-581 247-466 0-735-297-269-296-269-809v-1978h-578v3500h578v-544q207 316 486 472 280 156 646 156 603 0 912-373 310-373 310-1098z"/>
<path id="c" transform="scale(.0156)" d="m3597 1894v-281h-2644q38-594 358-905t892-311q331 0 642 81t618 244v-544q-310-131-635-200t-659-69q-838 0-1327 487-489 488-489 1320 0 859 464 1363 464 505 1252 505 706 0 1117-455 411-454 411-1235zm-575 169q-6 471-264 752-258 282-683 282-481 0-770-272t-333-766l2050 4z"/>
<path id="j" transform="scale(.0156)" d="m2834 3397v-544q-243 125-506 187-262 63-544 63-428 0-642-131t-214-394q0-200 153-314t616-217l197-44q612-131 870-370t258-667q0-488-386-773-386-284-1061-284-281 0-586 55t-642 164v594q319-166 628-249 309-82 613-82 406 0 624 139 219 139 219 392 0 234-158 359-157 125-692 241l-200 47q-534 112-772 345-237 233-237 639 0 494 350 762 350 269 994 269 318 0 599-47 282-46 519-140z"/>
</defs>
<use xlink:href="#f"/>
<use transform="translate(55)" xlink:href="#g"/>
<use transform="translate(116)" xlink:href="#k"/>
<use transform="translate(155)" xlink:href="#g"/>
<use transform="translate(216)" xlink:href="#ad"/>
<use transform="translate(280)" xlink:href="#q"/>
<use transform="translate(319)" xlink:href="#x"/>
<use transform="translate(347)" xlink:href="#w"/>
<use transform="translate(410)" xlink:href="#c"/>
<use transform="translate(471)" xlink:href="#j"/>
</g>
<path d="m94.6 245h478" clip-path="url(#a)" fill="none" stroke="#b0b0b0" stroke-linecap="square" stroke-width=".8"/>
<use x="94.642428" y="244.656606" stroke="#000000" stroke-width=".8" xlink:href="#i"/>
<g transform="translate(14.9 248) scale(.1 -.1)">
<defs>
<path id="y" transform="scale(.0156)" d="m2906 1791q0 625-258 968-257 344-723 344-462 0-720-344-258-343-258-968 0-622 258-966t720-344q466 0 723 344 258 344 258 966zm575-1357q0-893-397-1329-396-436-1215-436-303 0-572 45t-522 139v559q253-137 500-202 247-66 503-66 566 0 847 295t281 892v285q-178-310-456-463t-666-153q-643 0-1037 490-394 491-394 1301 0 812 394 1302 394 491 1037 491 388 0 666-153t456-462v531h575v-3066z"/>
<path id="ag" transform="scale(.0156)" d="m3513 3500-1266-1703 1331-1797h-678l-1019 1375-1018-1375h-679l1360 1831-1244 1669h678l928-1247 928 1247h679z"/>
<path id="v" transform="scale(.0156)" d="m3263-1063v-446h-3326v446h3326z"/>
<path id="p" transform="scale(.0156)" d="m3328 2828q216 388 516 572t706 184q547 0 844-383 297-382 297-1088v-2113h-578v2094q0 503-179 746-178 244-543 244-447 0-707-297-259-296-259-809v-1978h-578v2094q0 506-178 748t-550 242q-441 0-701-298-259-298-259-808v-1978h-578v3500h578v-544q197 322 472 475t653 153q382 0 649-194 267-193 395-562z"/>
<path id="ai" transform="scale(.0156)" d="m1159 525v-1856h-578v4831h578v-531q182 312 458 463 277 152 661 152 638 0 1036-506 399-506 399-1331t-399-1332q-398-506-1036-506-384 0-661 152-276 152-458 464zm1957 1222q0 634-261 995t-717 361q-457 0-718-361t-261-995 261-995 718-361q456 0 717 361t261 995z"/>
<path id="u" transform="scale(.0156)" d="m603 4863h575v-4863h-575v4863z"/>
</defs>
<use xlink:href="#k"/>
<use transform="translate(38.9)" xlink:href="#c"/>
<use transform="translate(100)" xlink:href="#y"/>
<use transform="translate(164)" xlink:href="#c"/>
<use transform="translate(224)" xlink:href="#ag"/>
<use transform="translate(283)" xlink:href="#v"/>
<use transform="translate(333)" xlink:href="#f"/>
<use transform="translate(388)" xlink:href="#g"/>
<use transform="translate(449)" xlink:href="#p"/>
<use transform="translate(546)" xlink:href="#ai"/>
<use transform="translate(610)" xlink:href="#x"/>
<use transform="translate(638)" xlink:href="#u"/>
<use transform="translate(665)" xlink:href="#c"/>
</g>
<path d="m94.6 218h478" clip-path="url(#a)" fill="none" stroke="#b0b0b0" stroke-linecap="square" stroke-width=".8"/>
<use x="94.642428" y="218.424092" stroke="#000000" stroke-width=".8" xlink:href="#i"/>
<g transform="translate(41.2 222) scale(.1 -.1)">
<defs>
<path id="ah" transform="scale(.0156)" d="m191 3500h609l1094-2937 1094 2937h609l-1313-3500h-781l-1312 3500z"/>
<path id="l" transform="scale(.0156)" d="m2194 1759q-697 0-966-159t-269-544q0-306 202-486 202-179 548-179 479 0 768 339t289 901v128h-572zm1147 238v-2e3h-575v531q-197-318-491-470t-719-152q-537 0-855 302-317 302-317 808 0 590 395 890 396 300 1180 300h807v57q0 397-261 614t-733 217q-300 0-585-72-284-72-546-216v532q315 122 612 182 297 61 578 61 760 0 1135-394 375-393 375-1193z"/>
</defs>
<use xlink:href="#f"/>
<use transform="translate(55)" xlink:href="#g"/>
<use transform="translate(116)" xlink:href="#ah"/>
<use transform="translate(175)" xlink:href="#c"/>
<use transform="translate(237)" xlink:href="#k"/>
<use transform="translate(278)" xlink:href="#l"/>
<use transform="translate(339)" xlink:href="#y"/>
<use transform="translate(403)" xlink:href="#c"/>
</g>
<path d="m94.6 192h478" clip-path="url(#a)" fill="none" stroke="#b0b0b0" stroke-linecap="square" stroke-width=".8"/>
<use x="94.642428" y="192.191577" stroke="#000000" stroke-width=".8" xlink:href="#i"/>
<g transform="translate(9.29 196) scale(.1 -.1)">
<use xlink:href="#p"/>
<use transform="translate(97.4)" xlink:href="#c"/>
<use transform="translate(159)" xlink:href="#q"/>
<use transform="translate(198)" xlink:href="#c"/>
<use transform="translate(260)" xlink:href="#g"/>
<use transform="translate(321)" xlink:href="#k"/>
<use transform="translate(362)" xlink:href="#v"/>
<use transform="translate(412)" xlink:href="#f"/>
<use transform="translate(467)" xlink:href="#g"/>
<use transform="translate(528)" xlink:href="#w"/>
<use transform="translate(592)" xlink:href="#q"/>
<use transform="translate(631)" xlink:href="#c"/>
<use transform="translate(692)" xlink:href="#j"/>
<use transform="translate(744)" xlink:href="#q"/>
</g>
<path d="m94.6 166h478" clip-path="url(#a)" fill="none" stroke="#b0b0b0" stroke-linecap="square" stroke-width=".8"/>
<use x="94.642428" y="165.959063" stroke="#000000" stroke-width=".8" xlink:href="#i"/>
<g transform="translate(34.3 170) scale(.1 -.1)">
<defs>
<path id="an" transform="scale(.0156)" d="m581 4863h578v-2872l1716 1509h734l-1856-1637 1935-1863h-750l-1779 1709v-1709h-578v4863z"/>
</defs>
<use xlink:href="#j"/>
<use transform="translate(52.1)" xlink:href="#f"/>
<use transform="translate(107)" xlink:href="#x"/>
<use transform="translate(135)" xlink:href="#p"/>
<use transform="translate(232)" xlink:href="#l"/>
<use transform="translate(294)" xlink:href="#k"/>
<use transform="translate(335)" xlink:href="#an"/>
<use transform="translate(393)" xlink:href="#v"/>
<use transform="translate(443)" xlink:href="#u"/>
<use transform="translate(470)" xlink:href="#ad"/>
</g>
<path d="m94.6 140h478" clip-path="url(#a)" fill="none" stroke="#b0b0b0" stroke-linecap="square" stroke-width=".8"/>
<use x="94.642428" y="139.726548" stroke="#000000" stroke-width=".8" xlink:href="#i"/>
<g transform="translate(3 144) scale(.1 -.1)">
<defs>
<path id="ac" transform="scale(.0156)" d="m2059-325q-243-625-475-815-231-191-618-191h-460v481h338q237 0 368 113 132 112 291 531l103 262-1415 3444h609l1094-2737 1094 2737h609l-1538-3825z"/>
</defs>
<use xlink:href="#f"/>
<use transform="translate(55)" xlink:href="#k"/>
<use transform="translate(93.8)" xlink:href="#c"/>
<use transform="translate(155)" xlink:href="#l"/>
<use transform="translate(217)" xlink:href="#q"/>
<use transform="translate(256)" xlink:href="#c"/>
<use transform="translate(317)" xlink:href="#v"/>
<use transform="translate(367)" xlink:href="#y"/>
<use transform="translate(431)" xlink:href="#f"/>
<use transform="translate(486)" xlink:href="#v"/>
<use transform="translate(536)" xlink:href="#f"/>
<use transform="translate(591)" xlink:href="#ac"/>
<use transform="translate(650)" xlink:href="#f"/>
<use transform="translate(705)" xlink:href="#u"/>
<use transform="translate(733)" xlink:href="#c"/>
<use transform="translate(794)" xlink:href="#j"/>
</g>
<path d="m94.6 113h478" clip-path="url(#a)" fill="none" stroke="#b0b0b0" stroke-linecap="square" stroke-width=".8"/>
<use x="94.642428" y="113.494034" stroke="#000000" stroke-width=".8" xlink:href="#i"/>
<g transform="translate(32.4 117) scale(.1 -.1)">
<defs>
<path id="ae" transform="scale(.0156)" d="m3513 2113v-2113h-575v2094q0 497-194 743-194 247-581 247-466 0-735-297-269-296-269-809v-1978h-578v4863h578v-1907q207 316 486 472 280 156 646 156 603 0 912-373 310-373 310-1098z"/>
</defs>
<use xlink:href="#f"/>
<use transform="translate(55)" xlink:href="#ae"/>
<use transform="translate(118)" xlink:href="#l"/>
<use transform="translate(180)" xlink:href="#p"/>
<use transform="translate(277)" xlink:href="#c"/>
<use transform="translate(339)" xlink:href="#u"/>
<use transform="translate(366)" xlink:href="#c"/>
<use transform="translate(428)" xlink:href="#g"/>
<use transform="translate(489)" xlink:href="#w"/>
</g>
<path d="m94.6 87.3h478" clip-path="url(#a)" fill="none" stroke="#b0b0b0" stroke-linecap="square" stroke-width=".8"/>
<use x="94.642428" y="87.261519" stroke="#000000" stroke-width=".8" xlink:href="#i"/>
<g transform="translate(50.8 91.1) scale(.1 -.1)">
<use xlink:href="#ae"/>
<use transform="translate(63.4)" xlink:href="#c"/>
<use transform="translate(123)" xlink:href="#ag"/>
<use transform="translate(182)" xlink:href="#x"/>
<use transform="translate(210)" xlink:href="#g"/>
<use transform="translate(271)" xlink:href="#p"/>
</g>
<path d="m94.6 61h478" clip-path="url(#a)" fill="none" stroke="#b0b0b0" stroke-linecap="square" stroke-width=".8"/>
<use x="94.642428" y="61.029005" stroke="#000000" stroke-width=".8" xlink:href="#i"/>
<g transform="translate(69.7 64.8) scale(.1 -.1)">
<defs>
<path id="ap" transform="scale(.0156)" d="m2188 4044-857-2322h1716l-859 2322zm-357 622h716l1778-4666h-656l-425 1197h-2103l-425-1197h-666l1781 4666z"/>
<path id="aj" transform="scale(.0156)" d="m628 4666h631v-4135h2272v-531h-2903v4666z"/>
</defs>
<use xlink:href="#ap"/>
<use transform="translate(68.4)" xlink:href="#aj"/>
<use transform="translate(124)" xlink:href="#aj"/>
</g>
<path d="m334 297v-262" clip-path="url(#a)" fill="none" stroke="#1f77b4" stroke-linecap="square" stroke-width="1.5"/>
<g fill="none" stroke="#1f77b4" stroke-width="1.5">
<path d="m334 277v-13.1" clip-path="url(#a)"/>
<path d="m349 251v-13.1" clip-path="url(#a)"/>
<path d="m352 225v-13.1" clip-path="url(#a)"/>
<path d="m355 199v-13.1" clip-path="url(#a)"/>
<path d="m355 173v-13.1" clip-path="url(#a)"/>
<path d="m356 146v-13.1" clip-path="url(#a)"/>
<path d="m360 120v-13.1" clip-path="url(#a)"/>
<path d="m464 93.8v-13.1" clip-path="url(#a)"/>
<path d="m366 67.6v-13.1" clip-path="url(#a)"/>
</g>
<g fill="none" stroke="#1f77b4" stroke-width="1.5">
<path d="m334 277v-13.1" clip-path="url(#a)"/>
<path d="m349 251v-13.1" clip-path="url(#a)"/>
<path d="m352 225v-13.1" clip-path="url(#a)"/>
<path d="m355 199v-13.1" clip-path="url(#a)"/>
<path d="m355 173v-13.1" clip-path="url(#a)"/>
<path d="m356 146v-13.1" clip-path="url(#a)"/>
<path d="m360 120v-13.1" clip-path="url(#a)"/>
<path d="m464 93.8v-13.1" clip-path="url(#a)"/>
<path d="m464 67.6v-13.1" clip-path="url(#a)"/>
</g>
<g fill="none" stroke="#1f77b4" stroke-width="1.5">
<path d="m334 277v-13.1" clip-path="url(#a)"/>
<path d="m349 251v-13.1" clip-path="url(#a)"/>
<path d="m352 225v-13.1" clip-path="url(#a)"/>
<path d="m355 199v-13.1" clip-path="url(#a)"/>
<path d="m355 173v-13.1" clip-path="url(#a)"/>
<path d="m356 146v-13.1" clip-path="url(#a)"/>
<path d="m360 120v-13.1" clip-path="url(#a)"/>
<path d="m464 93.8v-13.1" clip-path="url(#a)"/>
<path d="m334 67.6v-13.1" clip-path="url(#a)"/>
</g>
<g fill="none" stroke="#1f77b4" stroke-width="1.5">
<path d="m334 271" clip-path="url(#a)"/>
<path d="m349 245" clip-path="url(#a)"/>
<path d="m352 218" clip-path="url(#a)"/>
<path d="m355 192" clip-path="url(#a)"/>
<path d="m355 166" clip-path="url(#a)"/>
<path d="m356 140" clip-path="url(#a)"/>
<path d="m360 113" clip-path="url(#a)"/>
<path d="m464 87.3" clip-path="url(#a)"/>
<path d="m334 61h131" clip-path="url(#a)"/>
</g>
<g fill="none" stroke="#1f77b4" stroke-dasharray="1.5,2.475" stroke-width="1.5">
<path d="m334 277v-13.1" clip-path="url(#a)"/>
<path d="m334 277v-13.1" clip-path="url(#a)"/>
<path d="m349 251v-13.1" clip-path="url(#a)"/>
<path d="m349 251v-13.1" clip-path="url(#a)"/>
<path d="m352 225v-13.1" clip-path="url(#a)"/>
<path d="m352 225v-13.1" clip-path="url(#a)"/>
<path d="m355 199v-13.1" clip-path="url(#a)"/>
<path d="m355 199v-13.1" clip-path="url(#a)"/>
<path d="m355 173v-13.1" clip-path="url(#a)"/>
<path d="m355 173v-13.1" clip-path="url(#a)"/>
<path d="m356 146v-13.1" clip-path="url(#a)"/>
<path d="m356 146v-13.1" clip-path="url(#a)"/>
<path d="m360 120v-13.1" clip-path="url(#a)"/>
<path d="m360 120v-13.1" clip-path="url(#a)"/>
<path d="m464 93.8v-13.1" clip-path="url(#a)"/>
<path d="m464 93.8v-13.1" clip-path="url(#a)"/>
<path d="m345 67.6v-13.1" clip-path="url(#a)"/>
<path d="m391 67.6v-13.1" clip-path="url(#a)"/>
</g>
<path d="m94.6 297v-262" fill="none" stroke="#000" stroke-linecap="square" stroke-width=".8"/>
<path d="m573 297v-262" fill="none" stroke="#000" stroke-linecap="square" stroke-width=".8"/>
<path d="m94.6 297h478" fill="none" stroke="#000" stroke-linecap="square" stroke-width=".8"/>
<path d="m94.6 34.8h478" fill="none" stroke="#000" stroke-linecap="square" stroke-width=".8"/>
<g transform="translate(349 237) scale(.08 -.08)">
<defs>
<path id="m" transform="scale(.0156)" d="m2113 2584q-425 0-674-291-248-290-248-796 0-503 248-796 249-292 674-292t673 292q248 293 248 796 0 506-248 796-248 291-673 291zm1253 1979v-575q-238 112-480 171-242 60-480 60-625 0-955-422-329-422-376-1275 184 272 462 417 279 145 613 145 703 0 1111-427 408-426 408-1160 0-719-425-1154-425-434-1131-434-810 0-1238 620-428 621-428 1799 0 1106 525 1764t1409 658q238 0 480-47t505-140z"/>
<path id="n" transform="scale(.0156)" d="m2597 2516q453-97 707-404 255-306 255-756 0-690-475-1069-475-378-1350-378-293 0-604 58t-642 174v609q262-153 574-231 313-78 654-78 593 0 904 234t311 681q0 413-289 645-289 233-804 233h-544v519h569q465 0 712 186t247 536q0 359-255 551-254 193-729 193-260 0-557-57-297-56-653-174v562q360 100 674 150t592 50q719 0 1137-327 419-326 419-882 0-388-222-655t-631-370z"/>
</defs>
<use xlink:href="#d"/>
<use transform="translate(63.6)" xlink:href="#e"/>
<use transform="translate(95.4)" xlink:href="#b"/>
<use transform="translate(159)" xlink:href="#d"/>
<use transform="translate(223)" xlink:href="#m"/>
<use transform="translate(286)" xlink:href="#n"/>
</g>
<g transform="translate(352 211) scale(.08 -.08)">
<defs>
<path id="ak" transform="scale(.0156)" d="m691 4666h2478v-532h-1900v-1143q137 47 274 70 138 23 276 23 781 0 1237-428 457-428 457-1159 0-753-469-1171-469-417-1322-417-294 0-599 50-304 50-629 150v635q281-153 581-228t634-75q541 0 856 284 316 284 316 772 0 487-316 771-315 285-856 285-253 0-505-56-251-56-513-175v2344z"/>
</defs>
<use xlink:href="#d"/>
<use transform="translate(63.6)" xlink:href="#e"/>
<use transform="translate(95.4)" xlink:href="#b"/>
<use transform="translate(159)" xlink:href="#d"/>
<use transform="translate(223)" xlink:href="#ab"/>
<use transform="translate(286)" xlink:href="#ak"/>
</g>
<g transform="translate(355 184) scale(.08 -.08)">
<use xlink:href="#d"/>
<use transform="translate(63.6)" xlink:href="#e"/>
<use transform="translate(95.4)" xlink:href="#b"/>
<use transform="translate(159)" xlink:href="#o"/>
<use transform="translate(223)" xlink:href="#o"/>
<use transform="translate(286)" xlink:href="#n"/>
</g>
<g transform="translate(355 158) scale(.08 -.08)">
<use xlink:href="#d"/>
<use transform="translate(63.6)" xlink:href="#e"/>
<use transform="translate(95.4)" xlink:href="#b"/>
<use transform="translate(159)" xlink:href="#o"/>
<use transform="translate(223)" xlink:href="#o"/>
<use transform="translate(286)" xlink:href="#m"/>
</g>
<g transform="translate(356 132) scale(.08 -.08)">
<defs>
<path id="r" transform="scale(.0156)" d="m525 4666h3e3v-269l-1694-4397h-659l1594 4134h-2241v532z"/>
</defs>
<use xlink:href="#d"/>
<use transform="translate(63.6)" xlink:href="#e"/>
<use transform="translate(95.4)" xlink:href="#b"/>
<use transform="translate(159)" xlink:href="#o"/>
<use transform="translate(223)" xlink:href="#n"/>
<use transform="translate(286)" xlink:href="#r"/>
</g>
<g transform="translate(360 106) scale(.08 -.08)">
<use xlink:href="#d"/>
<use transform="translate(63.6)" xlink:href="#e"/>
<use transform="translate(95.4)" xlink:href="#b"/>
<use transform="translate(159)" xlink:href="#o"/>
<use transform="translate(223)" xlink:href="#r"/>
<use transform="translate(286)" xlink:href="#n"/>
</g>
<g transform="translate(464 79.4) scale(.08 -.08)">
<use xlink:href="#d"/>
<use transform="translate(63.6)" xlink:href="#e"/>
<use transform="translate(95.4)" xlink:href="#d"/>
<use transform="translate(159)" xlink:href="#n"/>
<use transform="translate(223)" xlink:href="#m"/>
<use transform="translate(286)" xlink:href="#m"/>
</g>
<g transform="translate(366 53.2) scale(.08 -.08)">
<defs>
<path id="al" transform="scale(.0156)" d="m2419 4116-1594-2491h1594v2491zm-166 550h794v-3041h666v-525h-666v-1100h-628v1100h-2106v609l1940 2957z"/>
</defs>
<use xlink:href="#d"/>
<use transform="translate(63.6)" xlink:href="#e"/>
<use transform="translate(95.4)" xlink:href="#b"/>
<use transform="translate(159)" xlink:href="#n"/>
<use transform="translate(223)" xlink:href="#n"/>
<use transform="translate(286)" xlink:href="#al"/>
</g>
<g transform="translate(344 34.8) scale(.1 -.1)">
<defs>
<path id="aq" transform="scale(.0156)" d="m8863 2147v-281l-1229-1228-375 375 729 728h-7622v531h7622l-729 728 375 375 1229-1228z"/>
</defs>
<use xlink:href="#p"/>
<use transform="translate(97.4)" xlink:href="#g"/>
<use transform="translate(159)" xlink:href="#k"/>
<use transform="translate(197)" xlink:href="#c"/>
<use transform="translate(259)" xlink:href="#DejaVuSans-20"/>
<use transform="translate(291)" xlink:href="#aq"/>
</g>
<g transform="translate(287 34.8) scale(.1 -.1)">
<defs>
<path id="ar" transform="scale(.0156)" d="m313 1866v281l1228 1228 375-375-728-728h7621v-531h-7621l728-728-375-375-1228 1228z"/>
</defs>
<use xlink:href="#ar"/>
<use transform="translate(143)" xlink:href="#DejaVuSans-20"/>
<use transform="translate(175)" xlink:href="#u"/>
<use transform="translate(203)" xlink:href="#c"/>
<use transform="translate(264)" xlink:href="#j"/>
<use transform="translate(317)" xlink:href="#j"/>
</g>
<g transform="translate(118 12.1) scale(.12 -.12)">
<defs>
<path id="ao" transform="scale(.0156)" d="m628 4666h941l1190-3175 1197 3175h941v-4666h-616v4097l-1203-3200h-634l-1203 3200v-4097h-613v4666z"/>
<path id="af" transform="scale(.0156)" d="m2375 4863v-479h-550q-309 0-430-125-120-125-120-450v-309h947v-447h-947v-3053h-578v3053h-550v447h550v244q0 584 272 851 272 268 862 268h544z"/>
<path id="am" transform="scale(.0156)" d="m313 2009h1684v-512h-1684v512z"/>
<path id="z" transform="scale(.0156)" d="m2906 2969v1894h575v-4863h-575v525q-181-312-458-464-276-152-664-152-634 0-1033 506-398 507-398 1332t398 1331q399 506 1033 506 388 0 664-152 277-151 458-463zm-1959-1222q0-634 261-995t717-361 718 361q263 361 263 995t-263 995q-262 361-718 361t-717-361-261-995z"/>
</defs>
<use xlink:href="#ao"/>
<use transform="translate(86.3)" xlink:href="#c"/>
<use transform="translate(148)" xlink:href="#p"/>
<use transform="translate(245)" xlink:href="#g"/>
<use transform="translate(306)" xlink:href="#k"/>
<use transform="translate(348)" xlink:href="#ac"/>
<use transform="translate(407)" xlink:href="#DejaVuSans-20"/>
<use transform="translate(438)" xlink:href="#ad"/>
<use transform="translate(502)" xlink:href="#j"/>
<use transform="translate(554)" xlink:href="#l"/>
<use transform="translate(615)" xlink:href="#y"/>
<use transform="translate(679)" xlink:href="#c"/>
<use transform="translate(740)" xlink:href="#DejaVuSans-20"/>
<use transform="translate(772)" xlink:href="#g"/>
<use transform="translate(833)" xlink:href="#af"/>
<use transform="translate(868)" xlink:href="#DejaVuSans-20"/>
<use transform="translate(900)" xlink:href="#ai"/>
<use transform="translate(964)" xlink:href="#ac"/>
<use transform="translate(1023)" xlink:href="#q"/>
<use transform="translate(1062)" xlink:href="#ae"/>
<use transform="translate(1125)" xlink:href="#g"/>
<use transform="translate(1187)" xlink:href="#w"/>
<use transform="translate(1250)" xlink:href="#am"/>
<use transform="translate(1286)" xlink:href="#f"/>
<use transform="translate(1341)" xlink:href="#m"/>
<use transform="translate(1405)" xlink:href="#af"/>
<use transform="translate(1440)" xlink:href="#z"/>
<use transform="translate(1503)" xlink:href="#r"/>
<use transform="translate(1567)" xlink:href="#z"/>
<use transform="translate(1630)" xlink:href="#c"/>
<use transform="translate(1692)" xlink:href="#m"/>
<use transform="translate(1756)" xlink:href="#al"/>
<use transform="translate(1819)" xlink:href="#l"/>
<use transform="translate(1881)" xlink:href="#f"/>
<use transform="translate(1935)" xlink:href="#r"/>
<use transform="translate(2e3)" xlink:href="#ak"/>
<use transform="translate(2063)" xlink:href="#aa"/>
<use transform="translate(2126)" xlink:href="#d"/>
<use transform="translate(2190)" xlink:href="#l"/>
<use transform="translate(2251)" xlink:href="#aa"/>
<use transform="translate(2315)" xlink:href="#r"/>
<use transform="translate(2379)" xlink:href="#b"/>
<use transform="translate(2442)" xlink:href="#ab"/>
<use transform="translate(2506)" xlink:href="#am"/>
<use transform="translate(2542)" xlink:href="#f"/>
<use transform="translate(2597)" xlink:href="#m"/>
<use transform="translate(2660)" xlink:href="#af"/>
<use transform="translate(2696)" xlink:href="#z"/>
<use transform="translate(2759)" xlink:href="#r"/>
<use transform="translate(2823)" xlink:href="#z"/>
<use transform="translate(2886)" xlink:href="#c"/>
<use transform="translate(2948)" xlink:href="#DejaVuSans-20"/>
<use transform="translate(2980)" xlink:href="#ah"/>
<use transform="translate(3039)" xlink:href="#j"/>
<use transform="translate(3091)" xlink:href="#e"/>
<use transform="translate(3123)" xlink:href="#DejaVuSans-20"/>
<use transform="translate(3154)" xlink:href="#n"/>
<use transform="translate(3218)" xlink:href="#e"/>
<use transform="translate(3250)" xlink:href="#d"/>
<use transform="translate(3313)" xlink:href="#m"/>
<use transform="translate(3377)" xlink:href="#e"/>
<use transform="translate(3409)" xlink:href="#b"/>
<use transform="translate(3472)" xlink:href="#l"/>
<use transform="translate(3534)" xlink:href="#b"/>
</g>
<defs>
<clipPath id="a">
<rect x="94.6" y="34.8" width="478" height="262"/>
</clipPath>
</defs>
</svg>
