<?xml version="1.0" encoding="UTF-8"?>
<!DOCTYPE svg  PUBLIC '-//W3C//DTD SVG 1.1//EN'  'http://www.w3.org/Graphics/SVG/1.1/DTD/svg11.dtd'>
<svg width="576pt" height="360pt" version="1.1" viewBox="0 0 576 360" xmlns="http://www.w3.org/2000/svg" xmlns:xlink="http://www.w3.org/1999/xlink">
<defs>
<style type="text/css">*{stroke-linejoin: round; stroke-linecap: butt}</style>
</defs>
<path d="m0 360h576v-360h-576z" fill="#fff"/>
<path d="m137 340h436v-306h-436z" fill="#fff"/>
<path d="m355 302v25.5-25.5z" clip-path="url(#a)" fill="#1f77b4" fill-opacity=".3"/>
<path d="m355 277v25.5-25.5z" clip-path="url(#a)" fill="#1f77b4" fill-opacity=".3"/>
<path d="m356 251v25.5-25.5z" clip-path="url(#a)" fill="#f00" fill-opacity=".3"/>
<path d="m356 226v25.5-25.5z" clip-path="url(#a)" fill="#1f77b4" fill-opacity=".3"/>
<path d="m371 200v25.5-25.5z" clip-path="url(#a)" fill="#1f77b4" fill-opacity=".3"/>
<path d="m375 175v25.5-25.5z" clip-path="url(#a)" fill="#1f77b4" fill-opacity=".3"/>
<path d="m376 149v25.5-25.5z" clip-path="url(#a)" fill="#1f77b4" fill-opacity=".3"/>
<path d="m377 124v25.5-25.5z" clip-path="url(#a)" fill="#1f77b4" fill-opacity=".3"/>
<path d="m379 98.4v25.5-25.5z" clip-path="url(#a)" fill="#1f77b4" fill-opacity=".3"/>
<path d="m389 73v25.5-25.5z" clip-path="url(#a)" fill="#1f77b4" fill-opacity=".3"/>
<path d="m355 49.7v21.1l0.343 0.0843 0.343 0.0701 0.343 0.0562 0.343 0.0427 0.343 0.0297 0.343 0.0172 0.343 0.00543 0.343-0.00556 0.343-0.0157 0.343-0.0249 0.343-0.033 0.343-0.0401 0.343-0.046 0.343-0.0508 0.343-0.0544 1.03-0.172 0.343-0.0565 0.343-0.0541 0.343-0.0506 0.343-0.046 0.343-0.0404 0.343-0.0339 0.343-0.0266 0.343-0.0186 0.343-0.0099 0.343-7.07e-4 0.343 0.0089 0.343 0.0188 0.343 0.0289 0.343 0.039 0.343 0.0491 0.343 0.059 0.343 0.0686 0.343 0.0777 0.343 0.0864 0.343 0.0944 0.343 0.102 0.343 0.108 0.343 0.114 0.343 0.118 0.343 0.122 0.343 0.125 0.343 0.126 0.686 0.252 0.343 0.123 0.343 0.12 0.343 0.116 0.343 0.11 0.343 0.104 0.343 0.0959 0.343 0.0873 0.343 0.0777 0.343 0.0673 0.343 0.0561 0.343 0.0441 0.343 0.0316 0.343 0.0185 0.343 0.00499 0.343-0.00886 0.343-0.023 0.343-0.0372 0.343-0.0515 0.343-0.0657 0.343-0.0798 0.343-0.0937 0.343-0.107 0.343-0.121 0.343-0.133 0.343-0.146 0.343-0.157 0.343-0.168 0.343-0.179 0.343-0.188 0.343-0.197 0.343-0.206 0.343-0.213 0.343-0.22 0.343-0.225 0.343-0.231 0.343-0.235 0.343-0.238 0.343-0.241 1.72-1.22 0.343-0.244 0.343-0.243 0.343-0.241 0.343-0.239 0.343-0.236 0.343-0.233 0.343-0.23 0.343-0.226 0.343-0.223v-11.6l-0.343-0.223-0.343-0.226-0.343-0.23-0.343-0.233-0.343-0.236-0.343-0.239-0.343-0.241-0.343-0.243-0.343-0.244-0.343-0.245-1.03-0.736-0.343-0.243-0.343-0.241-0.343-0.238-0.343-0.235-0.343-0.231-0.343-0.225-0.343-0.22-0.343-0.213-0.343-0.206-0.343-0.197-0.343-0.188-0.343-0.179-0.343-0.168-0.343-0.157-0.343-0.146-0.343-0.133-0.343-0.121-0.343-0.107-0.343-0.0937-0.343-0.0798-0.343-0.0657-0.343-0.0515-0.343-0.0372-0.343-0.023-0.343-0.00886-0.343 0.00499-0.343 0.0185-0.343 0.0316-0.343 0.0441-0.343 0.0561-0.343 0.0673-0.343 0.0777-0.343 0.0873-0.343 0.0959-0.343 0.104-0.343 0.11-0.343 0.116-0.343 0.12-0.343 0.123-1.03 0.378-0.343 0.125-0.343 0.122-0.343 0.118-0.343 0.114-0.343 0.108-0.343 0.102-0.343 0.0944-0.343 0.0864-0.343 0.0777-0.343 0.0686-0.343 0.059-0.343 0.0491-0.343 0.039-0.343 0.0289-0.343 0.0188-0.343 0.0089-0.343-7.08e-4 -0.343-0.0099-0.343-0.0186-0.343-0.0266-0.343-0.0339-0.343-0.0404-0.343-0.046-0.343-0.0506-0.343-0.0541-0.343-0.0565-1.03-0.172-0.343-0.0544-0.343-0.0508-0.343-0.046-0.343-0.0401-0.343-0.033-0.343-0.0249-0.343-0.0157-0.343-0.00556-0.343 0.00543-0.343 0.0172-0.343 0.0297-0.343 0.0427-0.343 0.0562-0.343 0.0701-0.343 0.0843z" clip-path="url(#a)" fill="#1f77b4" fill-opacity=".3"/>
<path d="m181 340v-306" clip-path="url(#a)" fill="none" stroke="#b0b0b0" stroke-linecap="square" stroke-width=".8"/>
<defs>
<path id="x" d="m0 0v3.5" stroke="#000" stroke-width=".8"/>
</defs>
<use x="180.624098" y="340.321635" stroke="#000000" stroke-width=".8" xlink:href="#x"/>
<defs>
<path id="y" d="m0 0v-3.5" stroke="#000" stroke-width=".8"/>
</defs>
<use x="180.624098" y="34.79649" stroke="#000000" stroke-width=".8" xlink:href="#y"/>
<g transform="translate(165 355) scale(.1 -.1)">
<defs>
<path id="b" transform="scale(.0156)" d="m2034 4250q-487 0-733-480-245-479-245-1442 0-959 245-1439 246-480 733-480 491 0 736 480 246 480 246 1439 0 963-246 1442-245 480-736 480zm0 500q785 0 1199-621 414-620 414-1801 0-1178-414-1799-414-620-1199-620-784 0-1198 620-414 621-414 1799 0 1181 414 1801 414 621 1198 621z"/>
<path id="d" transform="scale(.0156)" d="m684 794h660v-794h-660v794z"/>
<path id="ag" transform="scale(.0156)" d="m2034 2216q-450 0-708-241-257-241-257-662 0-422 257-663 258-241 708-241t709 242q260 243 260 662 0 421-258 662-257 241-711 241zm-631 268q-406 100-633 378-226 279-226 679 0 559 398 884 399 325 1092 325 697 0 1094-325t397-884q0-400-227-679-226-278-629-378 456-106 710-416 255-309 255-755 0-679-414-1042-414-362-1186-362-771 0-1186 362-414 363-414 1042 0 446 256 755 257 310 713 416zm-231 997q0-362 226-565 227-203 636-203 407 0 636 203 230 203 230 565 0 363-230 566-229 203-636 203-409 0-636-203-226-203-226-566z"/>
<path id="l" transform="scale(.0156)" d="m4488 3438-1429-1435 1429-1428-372-378-1435 1434-1434-1434-369 378 1425 1428-1425 1435 369 378 1434-1435 1435 1435 372-378z"/>
</defs>
<use xlink:href="#b"/>
<use transform="translate(63.6)" xlink:href="#d"/>
<use transform="translate(95.4)" xlink:href="#ag"/>
<use transform="translate(159)" xlink:href="#b"/>
<use transform="translate(223)" xlink:href="#l"/>
</g>
<g transform="translate(165 25.7) scale(.1 -.1)">
<use xlink:href="#b"/>
<use transform="translate(63.6)" xlink:href="#d"/>
<use transform="translate(95.4)" xlink:href="#ag"/>
<use transform="translate(159)" xlink:href="#b"/>
<use transform="translate(223)" xlink:href="#l"/>
</g>
<path d="m268 340v-306" clip-path="url(#a)" fill="none" stroke="#b0b0b0" stroke-linecap="square" stroke-width=".8"/>
<use x="267.81869" y="340.321635" stroke="#000000" stroke-width=".8" xlink:href="#x"/>
<use x="267.81869" y="34.79649" stroke="#000000" stroke-width=".8" xlink:href="#y"/>
<g transform="translate(252 355) scale(.1 -.1)">
<defs>
<path id="r" transform="scale(.0156)" d="m703 97v575q238-113 481-172 244-59 479-59 625 0 954 420 330 420 377 1277-181-269-460-413-278-144-615-144-700 0-1108 423-408 424-408 1159 0 718 425 1152 425 435 1131 435 810 0 1236-621 427-620 427-1801 0-1103-524-1761-523-658-1407-658-238 0-482 47-243 47-506 141zm1256 1978q425 0 673 290 249 291 249 798 0 503-249 795-248 292-673 292t-673-292-248-795q0-507 248-798 248-290 673-290z"/>
</defs>
<use xlink:href="#b"/>
<use transform="translate(63.6)" xlink:href="#d"/>
<use transform="translate(95.4)" xlink:href="#r"/>
<use transform="translate(159)" xlink:href="#b"/>
<use transform="translate(223)" xlink:href="#l"/>
</g>
<g transform="translate(252 25.7) scale(.1 -.1)">
<use xlink:href="#b"/>
<use transform="translate(63.6)" xlink:href="#d"/>
<use transform="translate(95.4)" xlink:href="#r"/>
<use transform="translate(159)" xlink:href="#b"/>
<use transform="translate(223)" xlink:href="#l"/>
</g>
<path d="m355 340v-306" clip-path="url(#a)" fill="none" stroke="#b0b0b0" stroke-linecap="square" stroke-width=".8"/>
<use x="355.013281" y="340.321635" stroke="#000000" stroke-width=".8" xlink:href="#x"/>
<use x="355.013281" y="34.79649" stroke="#000000" stroke-width=".8" xlink:href="#y"/>
<g transform="translate(340 355) scale(.1 -.1)">
<defs>
<path id="c" transform="scale(.0156)" d="m794 531h1031v3560l-1122-225v575l1116 225h631v-4135h1031v-531h-2687v531z"/>
</defs>
<use xlink:href="#c"/>
<use transform="translate(63.6)" xlink:href="#d"/>
<use transform="translate(95.4)" xlink:href="#b"/>
<use transform="translate(159)" xlink:href="#b"/>
<use transform="translate(223)" xlink:href="#l"/>
</g>
<g transform="translate(340 25.7) scale(.1 -.1)">
<use xlink:href="#c"/>
<use transform="translate(63.6)" xlink:href="#d"/>
<use transform="translate(95.4)" xlink:href="#b"/>
<use transform="translate(159)" xlink:href="#b"/>
<use transform="translate(223)" xlink:href="#l"/>
</g>
<path d="m442 340v-306" clip-path="url(#a)" fill="none" stroke="#b0b0b0" stroke-linecap="square" stroke-width=".8"/>
<use x="442.207873" y="340.321635" stroke="#000000" stroke-width=".8" xlink:href="#x"/>
<use x="442.207873" y="34.79649" stroke="#000000" stroke-width=".8" xlink:href="#y"/>
<g transform="translate(427 355) scale(.1 -.1)">
<use xlink:href="#c"/>
<use transform="translate(63.6)" xlink:href="#d"/>
<use transform="translate(95.4)" xlink:href="#c"/>
<use transform="translate(159)" xlink:href="#b"/>
<use transform="translate(223)" xlink:href="#l"/>
</g>
<g transform="translate(427 25.7) scale(.1 -.1)">
<use xlink:href="#c"/>
<use transform="translate(63.6)" xlink:href="#d"/>
<use transform="translate(95.4)" xlink:href="#c"/>
<use transform="translate(159)" xlink:href="#b"/>
<use transform="translate(223)" xlink:href="#l"/>
</g>
<path d="m529 340v-306" clip-path="url(#a)" fill="none" stroke="#b0b0b0" stroke-linecap="square" stroke-width=".8"/>
<use x="529.402464" y="340.321635" stroke="#000000" stroke-width=".8" xlink:href="#x"/>
<use x="529.402464" y="34.79649" stroke="#000000" stroke-width=".8" xlink:href="#y"/>
<g transform="translate(514 355) scale(.1 -.1)">
<defs>
<path id="o" transform="scale(.0156)" d="m1228 531h2203v-531h-2962v531q359 372 979 998 621 627 780 809 303 340 423 576 121 236 121 464 0 372-261 606-261 235-680 235-297 0-627-103-329-103-704-313v638q381 153 712 231 332 78 607 78 725 0 1156-363 431-362 431-968 0-288-108-546-107-257-392-607-78-91-497-524-418-433-1181-1211z"/>
</defs>
<use xlink:href="#c"/>
<use transform="translate(63.6)" xlink:href="#d"/>
<use transform="translate(95.4)" xlink:href="#o"/>
<use transform="translate(159)" xlink:href="#b"/>
<use transform="translate(223)" xlink:href="#l"/>
</g>
<g transform="translate(514 25.7) scale(.1 -.1)">
<use xlink:href="#c"/>
<use transform="translate(63.6)" xlink:href="#d"/>
<use transform="translate(95.4)" xlink:href="#o"/>
<use transform="translate(159)" xlink:href="#b"/>
<use transform="translate(223)" xlink:href="#l"/>
</g>
<path d="m137 315h436" clip-path="url(#a)" fill="none" stroke="#b0b0b0" stroke-linecap="square" stroke-width=".8"/>
<defs>
<path id="i" d="m0 0h-3.5" stroke="#000" stroke-width=".8"/>
</defs>
<use x="137.026803" y="314.861206" stroke="#000000" stroke-width=".8" xlink:href="#i"/>
<g transform="translate(54.1 319) scale(.1 -.1)">
<defs>
<path id="h" transform="scale(.0156)" d="m1159 525v-1856h-578v4831h578v-531q182 312 458 463 277 152 661 152 638 0 1036-506 399-506 399-1331t-399-1332q-398-506-1036-506-384 0-661 152-276 152-458 464zm1957 1222q0 634-261 995t-717 361q-457 0-718-361t-261-995 261-995 718-361q456 0 717 361t261 995z"/>
<path id="t" transform="scale(.0156)" d="m2059-325q-243-625-475-815-231-191-618-191h-460v481h338q237 0 368 113 132 112 291 531l103 262-1415 3444h609l1094-2737 1094 2737h609l-1538-3825z"/>
<path id="g" transform="scale(.0156)" d="m1172 4494v-994h1184v-447h-1184v-1900q0-428 117-550t477-122h590v-481h-590q-666 0-919 248-253 249-253 905v1900h-422v447h422v994h578z"/>
<path id="ab" transform="scale(.0156)" d="m3513 2113v-2113h-575v2094q0 497-194 743-194 247-581 247-466 0-735-297-269-296-269-809v-1978h-578v4863h578v-1907q207 316 486 472 280 156 646 156 603 0 912-373 310-373 310-1098z"/>
<path id="e" transform="scale(.0156)" d="m1959 3097q-462 0-731-361t-269-989 267-989q268-361 733-361 460 0 728 362 269 363 269 988 0 622-269 986-268 364-728 364zm0 487q750 0 1178-488 429-487 429-1349 0-859-429-1349-428-489-1178-489-753 0-1180 489-426 490-426 1349 0 862 426 1349 427 488 1180 488z"/>
<path id="j" transform="scale(.0156)" d="m3513 2113v-2113h-575v2094q0 497-194 743-194 247-581 247-466 0-735-297-269-296-269-809v-1978h-578v3500h578v-544q207 316 486 472 280 156 646 156 603 0 912-373 310-373 310-1098z"/>
<path id="k" transform="scale(.0156)" d="m3263-1063v-446h-3326v446h3326z"/>
<path id="m" transform="scale(.0156)" d="m2834 3397v-544q-243 125-506 187-262 63-544 63-428 0-642-131t-214-394q0-200 153-314t616-217l197-44q612-131 870-370t258-667q0-488-386-773-386-284-1061-284-281 0-586 55t-642 164v594q319-166 628-249 309-82 613-82 406 0 624 139 219 139 219 392 0 234-158 359-157 125-692 241l-200 47q-534 112-772 345-237 233-237 639 0 494 350 762 350 269 994 269 318 0 599-47 282-46 519-140z"/>
<path id="q" transform="scale(.0156)" d="m2194 1759q-697 0-966-159t-269-544q0-306 202-486 202-179 548-179 479 0 768 339t289 901v128h-572zm1147 238v-2e3h-575v531q-197-318-491-470t-719-152q-537 0-855 302-317 302-317 808 0 590 395 890 396 300 1180 300h807v57q0 397-261 614t-733 217q-300 0-585-72-284-72-546-216v532q315 122 612 182 297 61 578 61 760 0 1135-394 375-393 375-1193z"/>
<path id="n" transform="scale(.0156)" d="m2631 2963q-97 56-211 82-114 27-251 27-488 0-749-317t-261-911v-1844h-578v3500h578v-544q182 319 472 473 291 155 707 155 59 0 131-8 72-7 159-23l3-590z"/>
<path id="u" transform="scale(.0156)" d="m544 1381v2119h575v-2097q0-497 193-746 194-248 582-248 465 0 735 297 271 297 271 810v1984h575v-3500h-575v538q-209-319-486-474-276-155-642-155-603 0-916 375-312 375-312 1097zm1447 2203z"/>
</defs>
<use xlink:href="#h"/>
<use transform="translate(63.5)" xlink:href="#t"/>
<use transform="translate(123)" xlink:href="#g"/>
<use transform="translate(162)" xlink:href="#ab"/>
<use transform="translate(225)" xlink:href="#e"/>
<use transform="translate(286)" xlink:href="#j"/>
<use transform="translate(350)" xlink:href="#k"/>
<use transform="translate(400)" xlink:href="#m"/>
<use transform="translate(452)" xlink:href="#g"/>
<use transform="translate(491)" xlink:href="#q"/>
<use transform="translate(552)" xlink:href="#n"/>
<use transform="translate(594)" xlink:href="#g"/>
<use transform="translate(633)" xlink:href="#u"/>
<use transform="translate(696)" xlink:href="#h"/>
</g>
<path d="m137 289h436" clip-path="url(#a)" fill="none" stroke="#b0b0b0" stroke-linecap="square" stroke-width=".8"/>
<use x="137.026803" y="289.400778" stroke="#000000" stroke-width=".8" xlink:href="#i"/>
<g transform="translate(13.6 293) scale(.1 -.1)">
<defs>
<path id="aa" transform="scale(.0156)" d="m603 3500h575v-3500h-575v3500zm0 1363h575v-729h-575v729z"/>
<path id="f" transform="scale(.0156)" d="m3597 1894v-281h-2644q38-594 358-905t892-311q331 0 642 81t618 244v-544q-310-131-635-200t-659-69q-838 0-1327 487-489 488-489 1320 0 859 464 1363 464 505 1252 505 706 0 1117-455 411-454 411-1235zm-575 169q-6 471-264 752-258 282-683 282-481 0-770-272t-333-766l2050 4z"/>
</defs>
<use xlink:href="#h"/>
<use transform="translate(63.5)" xlink:href="#t"/>
<use transform="translate(123)" xlink:href="#g"/>
<use transform="translate(162)" xlink:href="#ab"/>
<use transform="translate(225)" xlink:href="#e"/>
<use transform="translate(286)" xlink:href="#j"/>
<use transform="translate(350)" xlink:href="#k"/>
<use transform="translate(400)" xlink:href="#m"/>
<use transform="translate(452)" xlink:href="#g"/>
<use transform="translate(491)" xlink:href="#q"/>
<use transform="translate(552)" xlink:href="#n"/>
<use transform="translate(594)" xlink:href="#g"/>
<use transform="translate(633)" xlink:href="#u"/>
<use transform="translate(696)" xlink:href="#h"/>
<use transform="translate(760)" xlink:href="#k"/>
<use transform="translate(810)" xlink:href="#j"/>
<use transform="translate(873)" xlink:href="#e"/>
<use transform="translate(934)" xlink:href="#k"/>
<use transform="translate(984)" xlink:href="#m"/>
<use transform="translate(1036)" xlink:href="#aa"/>
<use transform="translate(1064)" xlink:href="#g"/>
<use transform="translate(1103)" xlink:href="#f"/>
</g>
<path d="m137 264h436" clip-path="url(#a)" fill="none" stroke="#b0b0b0" stroke-linecap="square" stroke-width=".8"/>
<use x="137.026803" y="263.940349" stroke="#000000" stroke-width=".8" xlink:href="#i"/>
<g transform="translate(20.3 268) scale(.1 -.1)">
<defs>
<path id="p" transform="scale(.0156)" d="m3122 3366v-538q-244 135-489 202t-495 67q-560 0-870-355-309-354-309-995t309-996q310-354 870-354 250 0 495 67t489 202v-532q-241-112-499-168-257-57-548-57-791 0-1257 497-465 497-465 1341 0 856 470 1346 471 491 1290 491 265 0 518-55 253-54 491-163z"/>
<path id="aj" transform="scale(.0156)" d="m581 4863h578v-2872l1716 1509h734l-1856-1637 1935-1863h-750l-1779 1709v-1709h-578v4863z"/>
<path id="z" transform="scale(.0156)" d="m603 4863h575v-4863h-575v4863z"/>
</defs>
<use xlink:href="#u"/>
<use transform="translate(63.4)" xlink:href="#j"/>
<use transform="translate(127)" xlink:href="#h"/>
<use transform="translate(190)" xlink:href="#aa"/>
<use transform="translate(218)" xlink:href="#p"/>
<use transform="translate(273)" xlink:href="#aj"/>
<use transform="translate(331)" xlink:href="#z"/>
<use transform="translate(359)" xlink:href="#f"/>
<use transform="translate(420)" xlink:href="#k"/>
<use transform="translate(470)" xlink:href="#h"/>
<use transform="translate(534)" xlink:href="#u"/>
<use transform="translate(597)" xlink:href="#n"/>
<use transform="translate(636)" xlink:href="#f"/>
<use transform="translate(697)" xlink:href="#k"/>
<use transform="translate(747)" xlink:href="#h"/>
<use transform="translate(811)" xlink:href="#t"/>
<use transform="translate(870)" xlink:href="#g"/>
<use transform="translate(909)" xlink:href="#ab"/>
<use transform="translate(973)" xlink:href="#e"/>
<use transform="translate(1034)" xlink:href="#j"/>
</g>
<path d="m137 238h436" clip-path="url(#a)" fill="none" stroke="#b0b0b0" stroke-linecap="square" stroke-width=".8"/>
<use x="137.026803" y="238.47992" stroke="#000000" stroke-width=".8" xlink:href="#i"/>
<g transform="translate(44.4 242) scale(.1 -.1)">
<defs>
<path id="ac" transform="scale(.0156)" d="m2906 2969v1894h575v-4863h-575v525q-181-312-458-464-276-152-664-152-634 0-1033 506-398 507-398 1332t398 1331q399 506 1033 506 388 0 664-152 277-151 458-463zm-1959-1222q0-634 261-995t717-361 718 361q263 361 263 995t-263 995q-262 361-718 361t-717-361-261-995z"/>
<path id="v" transform="scale(.0156)" d="m3328 2828q216 388 516 572t706 184q547 0 844-383 297-382 297-1088v-2113h-578v2094q0 503-179 746-178 244-543 244-447 0-707-297-259-296-259-809v-1978h-578v2094q0 506-178 748t-550 242q-441 0-701-298-259-298-259-808v-1978h-578v3500h578v-544q197 322 472 475t653 153q382 0 649-194 267-193 395-562z"/>
</defs>
<use xlink:href="#ac"/>
<use transform="translate(63.5)" xlink:href="#f"/>
<use transform="translate(125)" xlink:href="#f"/>
<use transform="translate(187)" xlink:href="#h"/>
<use transform="translate(250)" xlink:href="#p"/>
<use transform="translate(305)" xlink:href="#e"/>
<use transform="translate(366)" xlink:href="#h"/>
<use transform="translate(430)" xlink:href="#t"/>
<use transform="translate(489)" xlink:href="#k"/>
<use transform="translate(539)" xlink:href="#v"/>
<use transform="translate(636)" xlink:href="#f"/>
<use transform="translate(698)" xlink:href="#v"/>
<use transform="translate(795)" xlink:href="#e"/>
</g>
<path d="m137 213h436" clip-path="url(#a)" fill="none" stroke="#b0b0b0" stroke-linecap="square" stroke-width=".8"/>
<use x="137.026803" y="213.019491" stroke="#000000" stroke-width=".8" xlink:href="#i"/>
<g transform="translate(57.3 217) scale(.1 -.1)">
<defs>
<path id="ae" transform="scale(.0156)" d="m2906 1791q0 625-258 968-257 344-723 344-462 0-720-344-258-343-258-968 0-622 258-966t720-344q466 0 723 344 258 344 258 966zm575-1357q0-893-397-1329-396-436-1215-436-303 0-572 45t-522 139v559q253-137 500-202 247-66 503-66 566 0 847 295t281 892v285q-178-310-456-463t-666-153q-643 0-1037 490-394 491-394 1301 0 812 394 1302 394 491 1037 491 388 0 666-153t456-462v531h575v-3066z"/>
<path id="an" transform="scale(.0156)" d="m3513 3500-1266-1703 1331-1797h-678l-1019 1375-1018-1375h-679l1360 1831-1244 1669h678l928-1247 928 1247h679z"/>
</defs>
<use xlink:href="#n"/>
<use transform="translate(38.9)" xlink:href="#f"/>
<use transform="translate(100)" xlink:href="#ae"/>
<use transform="translate(164)" xlink:href="#f"/>
<use transform="translate(224)" xlink:href="#an"/>
<use transform="translate(283)" xlink:href="#k"/>
<use transform="translate(333)" xlink:href="#p"/>
<use transform="translate(388)" xlink:href="#e"/>
<use transform="translate(449)" xlink:href="#v"/>
<use transform="translate(546)" xlink:href="#h"/>
<use transform="translate(610)" xlink:href="#aa"/>
<use transform="translate(638)" xlink:href="#z"/>
<use transform="translate(665)" xlink:href="#f"/>
</g>
<path d="m137 188h436" clip-path="url(#a)" fill="none" stroke="#b0b0b0" stroke-linecap="square" stroke-width=".8"/>
<use x="137.026803" y="187.559063" stroke="#000000" stroke-width=".8" xlink:href="#i"/>
<g transform="translate(78 191) scale(.1 -.1)">
<defs>
<path id="ao" transform="scale(.0156)" d="m603 3500h575v-3563q0-668-255-968-254-300-820-300h-219v487h154q328 0 446 152 119 151 119 629v3563zm0 1363h575v-729h-575v729z"/>
</defs>
<use xlink:href="#ao"/>
<use transform="translate(27.8)" xlink:href="#m"/>
<use transform="translate(79.9)" xlink:href="#e"/>
<use transform="translate(141)" xlink:href="#j"/>
<use transform="translate(204)" xlink:href="#k"/>
<use transform="translate(254)" xlink:href="#z"/>
<use transform="translate(282)" xlink:href="#e"/>
<use transform="translate(343)" xlink:href="#q"/>
<use transform="translate(405)" xlink:href="#ac"/>
<use transform="translate(468)" xlink:href="#m"/>
</g>
<path d="m137 162h436" clip-path="url(#a)" fill="none" stroke="#b0b0b0" stroke-linecap="square" stroke-width=".8"/>
<use x="137.026803" y="162.098634" stroke="#000000" stroke-width=".8" xlink:href="#i"/>
<g transform="translate(3 166) scale(.1 -.1)">
<use xlink:href="#g"/>
<use transform="translate(39.2)" xlink:href="#t"/>
<use transform="translate(98.4)" xlink:href="#h"/>
<use transform="translate(162)" xlink:href="#aa"/>
<use transform="translate(190)" xlink:href="#j"/>
<use transform="translate(253)" xlink:href="#ae"/>
<use transform="translate(317)" xlink:href="#k"/>
<use transform="translate(367)" xlink:href="#n"/>
<use transform="translate(408)" xlink:href="#u"/>
<use transform="translate(471)" xlink:href="#j"/>
<use transform="translate(534)" xlink:href="#g"/>
<use transform="translate(574)" xlink:href="#aa"/>
<use transform="translate(601)" xlink:href="#v"/>
<use transform="translate(699)" xlink:href="#f"/>
<use transform="translate(760)" xlink:href="#k"/>
<use transform="translate(810)" xlink:href="#h"/>
<use transform="translate(874)" xlink:href="#n"/>
<use transform="translate(913)" xlink:href="#e"/>
<use transform="translate(974)" xlink:href="#g"/>
<use transform="translate(1013)" xlink:href="#e"/>
<use transform="translate(1074)" xlink:href="#p"/>
<use transform="translate(1129)" xlink:href="#e"/>
<use transform="translate(1190)" xlink:href="#z"/>
<use transform="translate(1218)" xlink:href="#m"/>
</g>
<path d="m137 137h436" clip-path="url(#a)" fill="none" stroke="#b0b0b0" stroke-linecap="square" stroke-width=".8"/>
<use x="137.026803" y="136.638205" stroke="#000000" stroke-width=".8" xlink:href="#i"/>
<g transform="translate(84.1 140) scale(.1 -.1)">
<defs>
<path id="ak" transform="scale(.0156)" d="m2375 4863v-479h-550q-309 0-430-125-120-125-120-450v-309h947v-447h-947v-3053h-578v3053h-550v447h550v244q0 584 272 851 272 268 862 268h544z"/>
</defs>
<use xlink:href="#ak"/>
<use transform="translate(35.2)" xlink:href="#q"/>
<use transform="translate(96.5)" xlink:href="#j"/>
<use transform="translate(160)" xlink:href="#j"/>
<use transform="translate(223)" xlink:href="#aj"/>
<use transform="translate(278)" xlink:href="#u"/>
<use transform="translate(341)" xlink:href="#p"/>
<use transform="translate(396)" xlink:href="#ab"/>
</g>
<path d="m137 111h436" clip-path="url(#a)" fill="none" stroke="#b0b0b0" stroke-linecap="square" stroke-width=".8"/>
<use x="137.026803" y="111.177776" stroke="#000000" stroke-width=".8" xlink:href="#i"/>
<g transform="translate(83.6 115) scale(.1 -.1)">
<defs>
<path id="ai" transform="scale(.0156)" d="m191 3500h609l1094-2937 1094 2937h609l-1313-3500h-781l-1312 3500z"/>
</defs>
<use xlink:href="#p"/>
<use transform="translate(55)" xlink:href="#e"/>
<use transform="translate(116)" xlink:href="#ai"/>
<use transform="translate(175)" xlink:href="#f"/>
<use transform="translate(237)" xlink:href="#n"/>
<use transform="translate(278)" xlink:href="#q"/>
<use transform="translate(339)" xlink:href="#ae"/>
<use transform="translate(403)" xlink:href="#f"/>
</g>
<path d="m137 85.7h436" clip-path="url(#a)" fill="none" stroke="#b0b0b0" stroke-linecap="square" stroke-width=".8"/>
<use x="137.026803" y="85.717348" stroke="#000000" stroke-width=".8" xlink:href="#i"/>
<g transform="translate(107 89.5) scale(.1 -.1)">
<defs>
<path id="s" transform="scale(.0156)" d="m2597 2516q453-97 707-404 255-306 255-756 0-690-475-1069-475-378-1350-378-293 0-604 58t-642 174v609q262-153 574-231 313-78 654-78 593 0 904 234t311 681q0 413-289 645-289 233-804 233h-544v519h569q465 0 712 186t247 536q0 359-255 551-254 193-729 193-260 0-557-57-297-56-653-174v562q360 100 674 150t592 50q719 0 1137-327 419-326 419-882 0-388-222-655t-631-370z"/>
</defs>
<use xlink:href="#o"/>
<use transform="translate(63.6)" xlink:href="#g"/>
<use transform="translate(103)" xlink:href="#e"/>
<use transform="translate(164)" xlink:href="#s"/>
</g>
<path d="m137 60.3h436" clip-path="url(#a)" fill="none" stroke="#b0b0b0" stroke-linecap="square" stroke-width=".8"/>
<use x="137.026803" y="60.256919" stroke="#000000" stroke-width=".8" xlink:href="#i"/>
<g transform="translate(112 64.1) scale(.1 -.1)">
<defs>
<path id="ar" transform="scale(.0156)" d="m2188 4044-857-2322h1716l-859 2322zm-357 622h716l1778-4666h-656l-425 1197h-2103l-425-1197h-666l1781 4666z"/>
<path id="al" transform="scale(.0156)" d="m628 4666h631v-4135h2272v-531h-2903v4666z"/>
</defs>
<use xlink:href="#ar"/>
<use transform="translate(68.4)" xlink:href="#al"/>
<use transform="translate(124)" xlink:href="#al"/>
</g>
<path d="m355 340v-306" clip-path="url(#a)" fill="none" stroke="#1f77b4" stroke-linecap="square" stroke-width="1.5"/>
<g fill="none" stroke="#1f77b4" stroke-width="1.5">
<path d="m355 321v-12.7" clip-path="url(#a)"/>
<path d="m355 296v-12.7" clip-path="url(#a)"/>
<path d="m356 270v-12.7" clip-path="url(#a)"/>
<path d="m356 245v-12.7" clip-path="url(#a)"/>
<path d="m371 219v-12.7" clip-path="url(#a)"/>
<path d="m375 194v-12.7" clip-path="url(#a)"/>
<path d="m376 168v-12.7" clip-path="url(#a)"/>
<path d="m377 143v-12.7" clip-path="url(#a)"/>
<path d="m379 118v-12.7" clip-path="url(#a)"/>
<path d="m389 92.1v-12.7" clip-path="url(#a)"/>
<path d="m369 66.6v-12.7" clip-path="url(#a)"/>
</g>
<g fill="none" stroke="#1f77b4" stroke-width="1.5">
<path d="m355 321v-12.7" clip-path="url(#a)"/>
<path d="m355 296v-12.7" clip-path="url(#a)"/>
<path d="m356 270v-12.7" clip-path="url(#a)"/>
<path d="m356 245v-12.7" clip-path="url(#a)"/>
<path d="m371 219v-12.7" clip-path="url(#a)"/>
<path d="m375 194v-12.7" clip-path="url(#a)"/>
<path d="m376 168v-12.7" clip-path="url(#a)"/>
<path d="m377 143v-12.7" clip-path="url(#a)"/>
<path d="m379 118v-12.7" clip-path="url(#a)"/>
<path d="m389 92.1v-12.7" clip-path="url(#a)"/>
<path d="m389 66.6v-12.7" clip-path="url(#a)"/>
</g>
<g fill="none" stroke="#1f77b4" stroke-width="1.5">
<path d="m355 321v-12.7" clip-path="url(#a)"/>
<path d="m355 296v-12.7" clip-path="url(#a)"/>
<path d="m356 270v-12.7" clip-path="url(#a)"/>
<path d="m356 245v-12.7" clip-path="url(#a)"/>
<path d="m371 219v-12.7" clip-path="url(#a)"/>
<path d="m375 194v-12.7" clip-path="url(#a)"/>
<path d="m376 168v-12.7" clip-path="url(#a)"/>
<path d="m377 143v-12.7" clip-path="url(#a)"/>
<path d="m379 118v-12.7" clip-path="url(#a)"/>
<path d="m389 92.1v-12.7" clip-path="url(#a)"/>
<path d="m355 66.6v-12.7" clip-path="url(#a)"/>
</g>
<g fill="none" stroke="#1f77b4" stroke-width="1.5">
<path d="m355 315" clip-path="url(#a)"/>
<path d="m355 289" clip-path="url(#a)"/>
<path d="m356 264" clip-path="url(#a)"/>
<path d="m356 238" clip-path="url(#a)"/>
<path d="m371 213" clip-path="url(#a)"/>
<path d="m375 188" clip-path="url(#a)"/>
<path d="m376 162" clip-path="url(#a)"/>
<path d="m377 137" clip-path="url(#a)"/>
<path d="m379 111" clip-path="url(#a)"/>
<path d="m389 85.7" clip-path="url(#a)"/>
<path d="m355 60.3h34" clip-path="url(#a)"/>
</g>
<g fill="none" stroke="#1f77b4" stroke-dasharray="1.5,2.475" stroke-width="1.5">
<path d="m355 321v-12.7" clip-path="url(#a)"/>
<path d="m355 321v-12.7" clip-path="url(#a)"/>
<path d="m355 296v-12.7" clip-path="url(#a)"/>
<path d="m355 296v-12.7" clip-path="url(#a)"/>
<path d="m356 270v-12.7" clip-path="url(#a)"/>
<path d="m356 270v-12.7" clip-path="url(#a)"/>
<path d="m356 245v-12.7" clip-path="url(#a)"/>
<path d="m356 245v-12.7" clip-path="url(#a)"/>
<path d="m371 219v-12.7" clip-path="url(#a)"/>
<path d="m371 219v-12.7" clip-path="url(#a)"/>
<path d="m375 194v-12.7" clip-path="url(#a)"/>
<path d="m375 194v-12.7" clip-path="url(#a)"/>
<path d="m376 168v-12.7" clip-path="url(#a)"/>
<path d="m376 168v-12.7" clip-path="url(#a)"/>
<path d="m377 143v-12.7" clip-path="url(#a)"/>
<path d="m377 143v-12.7" clip-path="url(#a)"/>
<path d="m379 118v-12.7" clip-path="url(#a)"/>
<path d="m379 118v-12.7" clip-path="url(#a)"/>
<path d="m389 92.1v-12.7" clip-path="url(#a)"/>
<path d="m389 92.1v-12.7" clip-path="url(#a)"/>
<path d="m355 66.6v-12.7" clip-path="url(#a)"/>
<path d="m380 66.6v-12.7" clip-path="url(#a)"/>
</g>
<path d="m137 340v-306" fill="none" stroke="#000" stroke-linecap="square" stroke-width=".8"/>
<path d="m573 340v-306" fill="none" stroke="#000" stroke-linecap="square" stroke-width=".8"/>
<path d="m137 340h436" fill="none" stroke="#000" stroke-linecap="square" stroke-width=".8"/>
<path d="m137 34.8h436" fill="none" stroke="#000" stroke-linecap="square" stroke-width=".8"/>
<g transform="translate(356 256) scale(.08 -.08)">
<defs>
<path id="w" transform="scale(.0156)" d="m2419 4116-1594-2491h1594v2491zm-166 550h794v-3041h666v-525h-666v-1100h-628v1100h-2106v609l1940 2957z"/>
</defs>
<use xlink:href="#c"/>
<use transform="translate(63.6)" xlink:href="#d"/>
<use transform="translate(95.4)" xlink:href="#b"/>
<use transform="translate(159)" xlink:href="#b"/>
<use transform="translate(223)" xlink:href="#c"/>
<use transform="translate(286)" xlink:href="#w"/>
</g>
<g transform="translate(356 231) scale(.08 -.08)">
<use xlink:href="#c"/>
<use transform="translate(63.6)" xlink:href="#d"/>
<use transform="translate(95.4)" xlink:href="#b"/>
<use transform="translate(159)" xlink:href="#b"/>
<use transform="translate(223)" xlink:href="#c"/>
<use transform="translate(286)" xlink:href="#w"/>
</g>
<g transform="translate(371 205) scale(.08 -.08)">
<defs>
<path id="af" transform="scale(.0156)" d="m525 4666h3e3v-269l-1694-4397h-659l1594 4134h-2241v532z"/>
</defs>
<use xlink:href="#c"/>
<use transform="translate(63.6)" xlink:href="#d"/>
<use transform="translate(95.4)" xlink:href="#b"/>
<use transform="translate(159)" xlink:href="#c"/>
<use transform="translate(223)" xlink:href="#af"/>
<use transform="translate(286)" xlink:href="#r"/>
</g>
<g transform="translate(375 180) scale(.08 -.08)">
<use xlink:href="#c"/>
<use transform="translate(63.6)" xlink:href="#d"/>
<use transform="translate(95.4)" xlink:href="#b"/>
<use transform="translate(159)" xlink:href="#o"/>
<use transform="translate(223)" xlink:href="#o"/>
<use transform="translate(286)" xlink:href="#r"/>
</g>
<g transform="translate(376 154) scale(.08 -.08)">
<use xlink:href="#c"/>
<use transform="translate(63.6)" xlink:href="#d"/>
<use transform="translate(95.4)" xlink:href="#b"/>
<use transform="translate(159)" xlink:href="#o"/>
<use transform="translate(223)" xlink:href="#w"/>
<use transform="translate(286)" xlink:href="#w"/>
</g>
<g transform="translate(377 129) scale(.08 -.08)">
<defs>
<path id="ad" transform="scale(.0156)" d="m691 4666h2478v-532h-1900v-1143q137 47 274 70 138 23 276 23 781 0 1237-428 457-428 457-1159 0-753-469-1171-469-417-1322-417-294 0-599 50-304 50-629 150v635q281-153 581-228t634-75q541 0 856 284 316 284 316 772 0 487-316 771-315 285-856 285-253 0-505-56-251-56-513-175v2344z"/>
</defs>
<use xlink:href="#c"/>
<use transform="translate(63.6)" xlink:href="#d"/>
<use transform="translate(95.4)" xlink:href="#b"/>
<use transform="translate(159)" xlink:href="#o"/>
<use transform="translate(223)" xlink:href="#ad"/>
<use transform="translate(286)" xlink:href="#o"/>
</g>
<g transform="translate(379 104) scale(.08 -.08)">
<use xlink:href="#c"/>
<use transform="translate(63.6)" xlink:href="#d"/>
<use transform="translate(95.4)" xlink:href="#b"/>
<use transform="translate(159)" xlink:href="#o"/>
<use transform="translate(223)" xlink:href="#ag"/>
<use transform="translate(286)" xlink:href="#b"/>
</g>
<g transform="translate(389 78.1) scale(.08 -.08)">
<use xlink:href="#c"/>
<use transform="translate(63.6)" xlink:href="#d"/>
<use transform="translate(95.4)" xlink:href="#b"/>
<use transform="translate(159)" xlink:href="#s"/>
<use transform="translate(223)" xlink:href="#r"/>
<use transform="translate(286)" xlink:href="#b"/>
</g>
<g transform="translate(369 52.6) scale(.08 -.08)">
<defs>
<path id="ah" transform="scale(.0156)" d="m2113 2584q-425 0-674-291-248-290-248-796 0-503 248-796 249-292 674-292t673 292q248 293 248 796 0 506-248 796-248 291-673 291zm1253 1979v-575q-238 112-480 171-242 60-480 60-625 0-955-422-329-422-376-1275 184 272 462 417 279 145 613 145 703 0 1111-427 408-426 408-1160 0-719-425-1154-425-434-1131-434-810 0-1238 620-428 621-428 1799 0 1106 525 1764t1409 658q238 0 480-47t505-140z"/>
</defs>
<use xlink:href="#c"/>
<use transform="translate(63.6)" xlink:href="#d"/>
<use transform="translate(95.4)" xlink:href="#b"/>
<use transform="translate(159)" xlink:href="#c"/>
<use transform="translate(223)" xlink:href="#ah"/>
<use transform="translate(286)" xlink:href="#b"/>
</g>
<g transform="translate(365 34.8) scale(.1 -.1)">
<defs>
<path id="at" transform="scale(.0156)" d="m8863 2147v-281l-1229-1228-375 375 729 728h-7622v531h7622l-729 728 375 375 1229-1228z"/>
</defs>
<use xlink:href="#v"/>
<use transform="translate(97.4)" xlink:href="#e"/>
<use transform="translate(159)" xlink:href="#n"/>
<use transform="translate(197)" xlink:href="#f"/>
<use transform="translate(259)" xlink:href="#DejaVuSans-20"/>
<use transform="translate(291)" xlink:href="#at"/>
</g>
<g transform="translate(308 34.8) scale(.1 -.1)">
<defs>
<path id="au" transform="scale(.0156)" d="m313 1866v281l1228 1228 375-375-728-728h7621v-531h-7621l728-728-375-375-1228 1228z"/>
</defs>
<use xlink:href="#au"/>
<use transform="translate(143)" xlink:href="#DejaVuSans-20"/>
<use transform="translate(175)" xlink:href="#z"/>
<use transform="translate(203)" xlink:href="#f"/>
<use transform="translate(264)" xlink:href="#m"/>
<use transform="translate(317)" xlink:href="#m"/>
</g>
<g transform="translate(130 12.1) scale(.12 -.12)">
<defs>
<path id="aq" transform="scale(.0156)" d="m628 4666h941l1190-3175 1197 3175h941v-4666h-616v4097l-1203-3200h-634l-1203 3200v-4097h-613v4666z"/>
<path id="am" transform="scale(.0156)" d="m313 2009h1684v-512h-1684v512z"/>
<path id="ap" transform="scale(.0156)" d="m3116 1747q0 634-261 995t-717 361q-457 0-718-361t-261-995 261-995 718-361q456 0 717 361t261 995zm-1957 1222q182 312 458 463 277 152 661 152 638 0 1036-506 399-506 399-1331t-399-1332q-398-506-1036-506-384 0-661 152-276 152-458 464v-525h-578v4863h578v-1894z"/>
<path id="as" transform="scale(.0156)" d="m2944 4013v-1741h1740v-531h-1740v-1741h-525v1741h-1741v531h1741v1741h525z"/>
</defs>
<use xlink:href="#aq"/>
<use transform="translate(86.3)" xlink:href="#f"/>
<use transform="translate(148)" xlink:href="#v"/>
<use transform="translate(245)" xlink:href="#e"/>
<use transform="translate(306)" xlink:href="#n"/>
<use transform="translate(348)" xlink:href="#t"/>
<use transform="translate(407)" xlink:href="#DejaVuSans-20"/>
<use transform="translate(438)" xlink:href="#u"/>
<use transform="translate(502)" xlink:href="#m"/>
<use transform="translate(554)" xlink:href="#q"/>
<use transform="translate(615)" xlink:href="#ae"/>
<use transform="translate(679)" xlink:href="#f"/>
<use transform="translate(740)" xlink:href="#DejaVuSans-20"/>
<use transform="translate(772)" xlink:href="#e"/>
<use transform="translate(833)" xlink:href="#ak"/>
<use transform="translate(868)" xlink:href="#DejaVuSans-20"/>
<use transform="translate(900)" xlink:href="#h"/>
<use transform="translate(964)" xlink:href="#t"/>
<use transform="translate(1023)" xlink:href="#g"/>
<use transform="translate(1062)" xlink:href="#ab"/>
<use transform="translate(1125)" xlink:href="#e"/>
<use transform="translate(1187)" xlink:href="#j"/>
<use transform="translate(1250)" xlink:href="#am"/>
<use transform="translate(1286)" xlink:href="#ac"/>
<use transform="translate(1350)" xlink:href="#af"/>
<use transform="translate(1413)" xlink:href="#s"/>
<use transform="translate(1477)" xlink:href="#ah"/>
<use transform="translate(1540)" xlink:href="#s"/>
<use transform="translate(1604)" xlink:href="#w"/>
<use transform="translate(1668)" xlink:href="#r"/>
<use transform="translate(1731)" xlink:href="#s"/>
<use transform="translate(1795)" xlink:href="#ad"/>
<use transform="translate(1859)" xlink:href="#p"/>
<use transform="translate(1914)" xlink:href="#ap"/>
<use transform="translate(1977)" xlink:href="#r"/>
<use transform="translate(2041)" xlink:href="#p"/>
<use transform="translate(2096)" xlink:href="#f"/>
<use transform="translate(2157)" xlink:href="#b"/>
<use transform="translate(2221)" xlink:href="#b"/>
<use transform="translate(2284)" xlink:href="#q"/>
<use transform="translate(2346)" xlink:href="#ad"/>
<use transform="translate(2409)" xlink:href="#af"/>
<use transform="translate(2473)" xlink:href="#ac"/>
<use transform="translate(2536)" xlink:href="#am"/>
<use transform="translate(2572)" xlink:href="#ac"/>
<use transform="translate(2636)" xlink:href="#af"/>
<use transform="translate(2700)" xlink:href="#s"/>
<use transform="translate(2763)" xlink:href="#ah"/>
<use transform="translate(2827)" xlink:href="#s"/>
<use transform="translate(2890)" xlink:href="#w"/>
<use transform="translate(2954)" xlink:href="#r"/>
<use transform="translate(3018)" xlink:href="#DejaVuSans-20"/>
<use transform="translate(3049)" xlink:href="#ai"/>
<use transform="translate(3109)" xlink:href="#m"/>
<use transform="translate(3161)" xlink:href="#d"/>
<use transform="translate(3193)" xlink:href="#DejaVuSans-20"/>
<use transform="translate(3224)" xlink:href="#s"/>
<use transform="translate(3288)" xlink:href="#d"/>
<use transform="translate(3320)" xlink:href="#c"/>
<use transform="translate(3383)" xlink:href="#ad"/>
<use transform="translate(3447)" xlink:href="#d"/>
<use transform="translate(3479)" xlink:href="#b"/>
<use transform="translate(3542)" xlink:href="#q"/>
<use transform="translate(3604)" xlink:href="#ad"/>
<use transform="translate(3667)" xlink:href="#as"/>
</g>
<defs>
<clipPath id="a">
<rect x="137" y="34.8" width="436" height="306"/>
</clipPath>
</defs>
</svg>
